<svg width="115" height="28" viewBox="0 0 115 28" fill="none" xmlns="http://www.w3.org/2000/svg">
<path d="M5.98647 24.174C4.53794 24.209 3.18842 23.9931 1.92291 23.3731C0.125154 22.4923 -0.531303 20.2658 0.468984 18.4987C0.962824 17.6265 1.67929 17.3386 2.81699 17.589C3.77947 17.8011 4.73596 18.0398 5.69484 18.2686C6.18268 18.3849 6.67832 18.3793 7.16796 18.3197C7.51839 18.2766 7.81482 18.081 7.92281 17.7132C8.02845 17.3546 7.92281 17.0391 7.65763 16.7684C7.35638 16.4615 6.98855 16.2653 6.61952 16.0722C5.48542 15.478 4.36632 14.863 3.37624 14.0258C1.44047 12.3897 0.642399 9.52601 1.41346 6.92547C2.13953 4.4781 4.16171 2.75097 6.72093 2.55108C8.20003 2.43544 9.61438 2.80018 10.8199 3.7603C11.7116 4.4701 12.1934 5.41547 12.2204 6.57734C12.2534 8.00121 11.2964 8.82908 9.94803 8.50747C9.24478 8.3395 8.56491 8.0658 7.87963 7.8241C7.5754 7.71707 7.27597 7.67091 6.96275 7.74907C6.09508 7.96495 5.88745 8.58189 6.4833 9.27013C7.10736 9.99098 7.89882 10.5206 8.62972 11.1172C9.64736 11.9475 10.6069 12.8338 11.5202 13.7897C14.4016 16.8048 13.1019 23.0355 8.10042 23.9894C7.38218 24.1266 6.66272 24.2016 5.98766 24.1746L5.98647 24.174Z" fill="#DB3512"/>
<path d="M46.6901 13.3346C46.5238 16.3085 46.2928 19.2658 45.1257 22.0563C43.7924 25.2442 41.3832 26.6823 38.0799 26.7057C37.424 26.7106 36.7886 26.5666 36.2227 26.2057C35.4073 25.6853 35.0413 24.7756 35.2483 23.7023C35.4115 22.8559 36.0475 22.4992 36.7916 22.3276C37.6239 22.1363 38.4795 22.0397 39.2986 21.8066C40.2418 21.5385 40.9698 20.9726 41.2391 19.9294C41.3436 19.5247 41.2842 19.3999 40.8425 19.5019C37.7613 20.2185 34.3248 18.5972 33.5465 14.1742C33.3485 13.0492 33.2117 11.9156 33.2261 10.7673C33.2447 9.21424 33.9515 8.42636 35.4721 8.28056C37.3184 8.10406 37.9131 8.6871 38.1123 10.8515C38.2071 11.8818 38.2833 12.9164 38.5845 13.9122C38.7855 14.5752 39.0778 15.1706 39.8777 15.1916C40.6878 15.2124 41.0838 14.6773 41.331 13.9811C41.7582 12.7773 41.8824 11.5005 42.1674 10.2629C42.3373 9.52549 42.5137 8.74987 43.3928 8.61024C44.4039 8.45035 45.3093 8.68779 45.9027 9.64668C46.4632 10.5526 46.5928 11.5805 46.6864 12.6156C46.708 12.8531 46.6895 13.0948 46.6895 13.334L46.6901 13.3346Z" fill="#DB3512"/>
<path d="M79.1733 14.8761C78.8047 15.3294 78.8367 15.7347 78.8253 16.1308C78.7963 17.0866 78.887 18.0461 78.6897 18.997C78.4833 19.9922 77.7057 20.552 76.6014 20.453C75.6735 20.3693 75.3165 19.948 75.3285 18.8187C75.3651 15.3072 75.4173 11.7952 76.1133 8.33538C76.2237 7.78737 76.3768 7.2504 76.641 6.75711C77.3813 5.37505 78.9601 5.35106 79.7468 6.72082C80.2913 7.66862 80.5358 8.73888 80.8595 9.77585C81.0887 10.5084 81.3301 11.2379 81.5876 11.9606C81.666 12.1802 81.7894 12.4232 82.0681 12.4219C82.3446 12.4207 82.4718 12.1821 82.551 11.9612C82.8564 11.1149 83.1443 10.2612 83.4329 9.40808C83.7139 8.57708 84.0026 7.74982 84.5197 7.03451C85.4869 5.6955 87.0512 5.87572 87.7344 7.39618C88.157 8.3366 88.2271 9.35765 88.2972 10.3559C88.4921 13.1151 88.7709 15.8718 88.6544 18.6471C88.6193 19.4749 88.221 19.9941 87.5135 20.2905C86.1243 20.873 85.1335 20.1128 85.0155 18.369C84.9431 17.3074 84.9066 16.2427 84.8502 15.1799C84.8426 15.0286 84.8951 14.8263 84.7238 14.7543C84.4907 14.6559 84.4001 14.8835 84.3224 15.0348C83.9835 15.6929 83.6987 16.3836 83.3278 17.0214C82.4383 18.5505 81.2715 18.5598 80.3332 17.043C79.9212 16.378 79.5899 15.6609 79.1733 14.8761Z" fill="#DB3512"/>
<path d="M69.6645 12.3487C69.1448 12.6169 69.0698 13.0689 68.8856 13.4312C68.5856 14.0205 68.3401 14.6398 67.9316 15.1664C67.2373 16.0607 66.3846 16.1 65.6243 15.2568C65.0687 14.6411 64.7789 13.86 64.4038 13.1317C64.3139 12.957 64.2754 12.6594 64.0198 12.6932C63.7582 12.7276 63.7912 13.0437 63.781 13.2178C63.7276 14.1472 63.724 15.0797 63.6922 16.0102C63.6405 17.5258 63.0231 18.1224 61.55 18.0922C60.6829 18.0744 60.255 17.6887 60.2202 16.7858C60.147 14.8933 60.3199 13.0063 60.4303 11.1204C60.5233 9.53229 60.6805 7.94053 61.1329 6.40343C61.2373 6.04854 61.3405 5.68626 61.502 5.35658C62.1921 3.94499 63.736 3.83366 64.6228 5.13577C65.1641 5.92983 65.4119 6.86474 65.7377 7.76152C65.9814 8.43315 66.2154 9.11347 66.5226 9.75433C66.7794 10.2895 67.1748 10.2919 67.4317 9.75068C67.7599 9.05992 68.021 8.33412 68.2994 7.61945C68.6186 6.802 68.9408 5.98334 69.5337 5.32583C70.4913 4.2636 71.7898 4.41122 72.5291 5.64444C72.963 6.36899 73.116 7.18827 73.1856 8.00261C73.4226 10.7864 73.6615 13.5727 73.5289 16.3737C73.4838 17.3204 72.8868 17.9822 71.9357 18.0954C70.882 18.2208 70.3552 17.885 70.0738 16.8572C69.7179 15.5594 69.9675 14.2019 69.7329 12.89C69.7053 12.7368 69.6933 12.5812 69.6651 12.3481L69.6645 12.3487Z" fill="#DB3512"/>
<path d="M94.2749 12.6808C94.2749 13.3734 94.236 14.0684 94.2863 14.7573C94.3289 15.3564 94.5094 15.9468 95.1941 16.0871C95.8734 16.2267 96.2603 15.7777 96.5383 15.2297C97.1026 14.1146 97.3562 12.8807 97.7904 11.7145C98.0432 11.0337 98.258 10.3275 99.1749 10.3479C100.076 10.3675 100.672 10.8331 101.007 11.7982C101.403 12.9428 101.278 14.1078 101.127 15.2702C100.801 17.7835 100.237 20.2333 99.2153 22.5539C98.7644 23.5774 98.2016 24.5345 97.4461 25.3586C95.8651 27.0839 93.9047 27.48 91.738 26.9757C90.521 26.6922 89.965 25.6527 90.1577 24.2608C90.2864 23.3296 91.0175 22.8203 92.2627 22.8221C92.8362 22.8227 93.4036 22.7938 93.9626 22.6542C94.5315 22.5121 95.0456 22.2685 95.4005 21.7709C95.5977 21.4942 95.8833 21.1756 95.7577 20.8416C95.6114 20.4523 95.2109 20.7254 94.9329 20.7192C93.4638 20.6866 92.361 19.9694 91.4852 18.8272C90.2049 17.1561 89.9924 15.1823 90.0458 13.1593C90.0678 12.3389 90.1965 11.5183 90.3222 10.7052C90.4357 9.97392 90.8104 9.43627 91.5491 9.21117C92.4029 8.95103 93.2094 9.08815 93.923 9.58085C94.2505 9.80656 94.2551 10.2839 94.2619 10.6836C94.2749 11.3492 94.2657 12.0153 94.2657 12.6814C94.2688 12.6814 94.2718 12.6808 94.2749 12.6808Z" fill="#DB3512"/>
<path d="M24.711 14.0525C24.7758 15.9802 24.4121 17.7091 23.5829 19.3144C22.1872 22.0171 19.4605 22.9932 16.8491 21.7581C15.1804 20.969 14.3709 19.5082 14.0895 17.7577C13.7685 15.7599 13.6706 13.7271 14.0409 11.7214C14.7915 7.65452 18.426 6.19927 21.7773 7.53397C23.5469 8.23886 24.2033 9.90199 24.5436 11.6993C24.6978 12.513 24.7392 13.3348 24.711 14.0525ZM17.688 14.1725C17.6628 14.7857 17.7114 15.3915 17.835 15.993C17.9796 16.6992 18.1849 17.396 19.0063 17.4729C19.7792 17.5449 20.2664 17.0135 20.5376 16.3425C21.1641 14.7937 21.2565 13.2006 20.7032 11.6076C20.5064 11.0405 20.1728 10.5718 19.4839 10.5515C18.7825 10.5312 18.3852 10.9445 18.1134 11.5325C17.7276 12.3691 17.6442 13.2622 17.6874 14.1731L17.688 14.1725Z" fill="#DB3512"/>
<path d="M52.4606 15.4475C52.4618 15.6597 52.451 15.883 52.511 16.0804C52.64 16.5079 52.7504 16.9957 53.2958 17.0541C53.8635 17.115 54.1335 16.7115 54.3171 16.2453C54.6333 15.4444 54.6724 14.5888 54.7323 13.7438C54.8092 12.657 54.8386 11.567 54.9094 10.4796C54.9298 10.1647 55.0024 9.84914 55.0864 9.54467C55.291 8.80044 55.7794 8.35817 56.5319 8.30096C57.2603 8.24566 57.7507 8.63742 58.0759 9.29002C58.5265 10.1942 58.5535 11.1869 58.6405 12.1593C58.8121 14.0796 58.7569 15.987 58.0638 17.8162C57.2057 20.0796 55.2712 21.5897 53.2196 21.5927C51.402 21.5957 50.0364 20.7857 49.1501 19.1466C48.5866 18.104 48.3166 16.9625 48.2248 15.7975C48.0592 13.7057 47.9067 11.6107 48.1798 9.50841C48.3742 8.01187 49.9271 6.94722 51.3318 7.40975C52.1557 7.68097 52.397 8.36677 52.4629 9.14178C52.5104 9.69656 52.4875 10.2581 52.4912 10.8166C52.4948 11.3751 52.4552 14.4622 52.46 15.4469L52.4606 15.4475Z" fill="#DB3512"/>
<path d="M106.012 16.7723C105.147 16.3343 106.511 16.8903 105.802 16.4482C105.802 16.4482 109.573 2.29471 110.17 1.08609C110.584 0.24959 111.458 -0.187111 112.295 0.0761392C113.022 0.303101 113.681 0.619248 114.29 1.09101C114.845 1.52033 115.262 2.43863 114.805 3.2819C114.458 3.92464 106.341 16.1855 106.012 16.7723Z" fill="#DB3512"/>
<path d="M102.535 17.1843C103.208 15.7254 104.878 15.1042 106.265 15.7967C107.653 16.4905 108.232 18.2343 107.559 19.6945C106.885 21.1535 104.754 22.7729 103.367 22.0804C101.98 21.3872 101.862 18.6439 102.535 17.1843Z" fill="#DB3512"/>
</svg>
