<svg width="24" height="24" viewBox="0 0 24 24" fill="none" xmlns="http://www.w3.org/2000/svg">
<g clip-path="url(#clip0_13_1373)">
<path d="M0.880137 14.09L4.75014 18C4.8431 18.0938 4.9537 18.1681 5.07556 18.2189C5.19742 18.2697 5.32813 18.2958 5.46014 18.2958C5.59215 18.2958 5.72286 18.2697 5.84471 18.2189C5.96657 18.1681 6.07717 18.0938 6.17014 18C6.26387 17.9071 6.33826 17.7965 6.38903 17.6746C6.4398 17.5527 6.46594 17.422 6.46594 17.29C6.46594 17.158 6.4398 17.0273 6.38903 16.9054C6.33826 16.7836 6.26387 16.673 6.17014 16.58L2.61014 13H23.0001C23.2654 13 23.5197 12.8947 23.7072 12.7071C23.8948 12.5196 24.0001 12.2652 24.0001 12C24.0001 11.7348 23.8948 11.4805 23.7072 11.2929C23.5197 11.1054 23.2654 11 23.0001 11H2.55014L6.17014 7.38002C6.34743 7.19405 6.44633 6.94696 6.44633 6.69002C6.44633 6.43308 6.34743 6.186 6.17014 6.00002C6.07717 5.90629 5.96657 5.8319 5.84471 5.78113C5.72286 5.73036 5.59215 5.70422 5.46014 5.70422C5.32813 5.70422 5.19742 5.73036 5.07556 5.78113C4.9537 5.8319 4.8431 5.90629 4.75014 6.00002L0.880137 9.85002C0.318335 10.4125 0.0027771 11.175 0.0027771 11.97C0.0027771 12.765 0.318335 13.5275 0.880137 14.09Z" fill="black"/>
</g>
<defs>
<clipPath id="clip0_13_1373">
<rect width="24" height="24" fill="white"/>
</clipPath>
</defs>
</svg>
