<svg xmlns="http://www.w3.org/2000/svg" width="29" height="36" viewBox="0 0 29 36" fill="none">
<path d="M18.4807 18.9866H16.108V18.5866C17.9007 17.92 19.1925 16.1866 19.1925 14.1333C19.1925 8.90663 19.1925 14.72 19.1925 9.49329C20.2207 8.93329 20.8007 7.75996 20.6425 6.55996C20.4843 5.35996 19.5352 4.37329 18.3752 4.15996C17.9534 4.07996 17.5316 4.10663 17.1098 4.21329C16.4771 3.43996 15.5016 2.95996 14.4998 2.95996C13.498 2.95996 12.4962 3.43996 11.8634 4.23996C11.5207 4.13329 11.178 4.10663 10.8089 4.13329C9.51706 4.23996 8.43615 5.25329 8.25161 6.55996C8.06706 7.81329 8.69979 9.03996 9.80706 9.5733C9.80706 10.2933 9.80706 10.5066 9.85979 14.1333C9.85979 16.1866 11.1516 17.92 12.9443 18.5866V18.9866H10.5716C7.88252 18.9866 5.69434 21.2 5.69434 23.92V27.3333C5.69434 28.24 6.43252 28.9866 7.32888 28.9866H21.7762C22.6725 28.9866 23.4107 28.24 23.4107 27.3333V23.92C23.4107 21.2 21.2225 18.9866 18.5334 18.9866H18.4807ZM10.3871 11.12H18.5598V12H10.3871V11.12ZM8.83161 6.66663C8.98979 5.65329 9.80706 4.87996 10.8352 4.79996C11.178 4.77329 11.5207 4.79996 11.8371 4.95996C11.9689 5.01329 12.1271 4.95996 12.2062 4.85329C12.7334 4.10663 13.5771 3.65329 14.4734 3.65329C15.3698 3.65329 16.2134 4.07996 16.7143 4.82663C16.7934 4.93329 16.9516 4.98663 17.0834 4.93329C17.4525 4.79996 17.848 4.77329 18.2434 4.85329C19.1398 5.01329 19.878 5.78663 20.0098 6.71996C20.1416 7.70663 19.6407 8.63996 18.7443 9.06663C18.6389 9.11996 18.5598 9.22663 18.5598 9.35996V10.5333H10.3871V9.41329C10.3871 9.27996 10.308 9.17329 10.1762 9.11996C9.22706 8.74663 8.64706 7.73329 8.80525 6.69329L8.83161 6.66663ZM10.4398 14.16V12.6666H18.5598V14.16C18.5598 16.4266 16.7407 18.2666 14.4998 18.2666C12.2589 18.2666 10.4398 16.4266 10.4398 14.16ZM14.4998 18.88C14.8425 18.88 15.1589 18.8533 15.4752 18.7733V20.56C15.4752 21.0933 15.0271 21.5466 14.4998 21.5466C13.9725 21.5466 13.5243 21.0933 13.5243 20.56V18.7733C13.8407 18.8266 14.1571 18.88 14.4998 18.88ZM6.24797 27.36V23.9466C6.24797 21.5733 8.14615 19.6533 10.5189 19.6533H12.8916V20.6133C12.8916 20.8266 12.9443 21.04 13.0234 21.2266C11.758 21.4133 10.7825 22.5066 10.7825 23.84V28.4H7.27615C6.72252 28.4 6.27434 27.9466 6.27434 27.3866L6.24797 27.36ZM22.7516 27.36C22.7516 27.92 22.3034 28.3733 21.7498 28.3733H11.4152V23.8133C11.4152 22.6933 12.3116 21.8133 13.3925 21.8133C14.4734 21.8133 13.4189 21.8133 13.4452 21.8133C13.7352 22.0533 14.1043 22.2133 14.4998 22.2133C15.3698 22.2133 16.108 21.4933 16.108 20.5866V19.6266H18.4807C20.8271 19.6266 22.7516 21.5466 22.7516 23.92V27.3333V27.36Z" fill="black" stroke="black" stroke-miterlimit="10"/>
<path d="M13.8143 22.72C13.2343 22.72 12.7861 23.2 12.7861 23.76C12.7861 24.32 13.2607 24.8 13.8143 24.8C14.368 24.8 14.8425 24.32 14.8425 23.76C14.8425 23.2 14.368 22.72 13.8143 22.72ZM13.8143 24.1866C13.6034 24.1866 13.4189 24 13.4189 23.7866C13.4189 23.5733 13.6034 23.3866 13.8143 23.3866C14.0252 23.3866 14.2098 23.5733 14.2098 23.7866C14.2098 24 14.0252 24.1866 13.8143 24.1866Z" fill="black" stroke="black" stroke-miterlimit="10"/>
<path d="M13.8143 25.6267C13.2343 25.6267 12.7861 26.1067 12.7861 26.6667C12.7861 27.2267 13.2607 27.7067 13.8143 27.7067C14.368 27.7067 14.8425 27.2267 14.8425 26.6667C14.8425 26.1067 14.368 25.6267 13.8143 25.6267ZM13.8143 27.0667C13.6034 27.0667 13.4189 26.88 13.4189 26.6667C13.4189 26.4534 13.6034 26.2667 13.8143 26.2667C14.0252 26.2667 14.2098 26.4534 14.2098 26.6667C14.2098 26.88 14.0252 27.0667 13.8143 27.0667Z" fill="black" stroke="black" stroke-miterlimit="10"/>
<path d="M16.8465 22.72C16.2665 22.72 15.8184 23.2 15.8184 23.76C15.8184 24.32 16.2929 24.8 16.8465 24.8C17.4002 24.8 17.8747 24.32 17.8747 23.76C17.8747 23.2 17.4002 22.72 16.8465 22.72ZM16.8465 24.1866C16.6356 24.1866 16.4511 24 16.4511 23.7866C16.4511 23.5733 16.6356 23.3866 16.8465 23.3866C17.0575 23.3866 17.242 23.5733 17.242 23.7866C17.242 24 17.0575 24.1866 16.8465 24.1866Z" fill="black" stroke="black" stroke-miterlimit="10"/>
<path d="M16.8465 25.6267C16.2665 25.6267 15.8184 26.1067 15.8184 26.6667C15.8184 27.2267 16.2929 27.7067 16.8465 27.7067C17.4002 27.7067 17.8747 27.2267 17.8747 26.6667C17.8747 26.1067 17.4002 25.6267 16.8465 25.6267ZM16.8465 27.0667C16.6356 27.0667 16.4511 26.88 16.4511 26.6667C16.4511 26.4534 16.6356 26.2667 16.8465 26.2667C17.0575 26.2667 17.242 26.4534 17.242 26.6667C17.242 26.88 17.0575 27.0667 16.8465 27.0667Z" fill="black" stroke="black" stroke-miterlimit="10"/>
</svg>