<svg width="44" height="44" viewBox="0 0 44 44" fill="none" xmlns="http://www.w3.org/2000/svg">
<path d="M22 1.5C33.322 1.5 42.5 10.678 42.5 22C42.5 33.322 33.322 42.5 22 42.5C10.678 42.5 1.5 33.322 1.5 22C1.513 10.683 10.683 1.513 22 1.5ZM22 0C9.85 0 0 9.85 0 22C0 34.15 9.85 44 22 44C34.15 44 44 34.15 44 22C44 16.1652 41.6822 10.5695 37.5564 6.44365C33.4305 2.31785 27.8348 0 22 0ZM18.85 14.9C18.85 13.6667 18.3601 12.484 17.488 11.612C16.616 10.7399 15.4333 10.25 14.2 10.25C12.9667 10.25 11.784 10.7399 10.912 11.612C10.0399 12.484 9.55 13.6667 9.55 14.9C9.55 15.0989 9.62902 15.2897 9.76967 15.4303C9.91032 15.571 10.1011 15.65 10.3 15.65C10.4989 15.65 10.6897 15.571 10.8303 15.4303C10.971 15.2897 11.05 15.0989 11.05 14.9C11.05 14.4863 11.1315 14.0767 11.2898 13.6945C11.4481 13.3124 11.6801 12.9651 11.9726 12.6726C12.2651 12.3801 12.6124 12.1481 12.9945 11.9898C13.3767 11.8315 13.7863 11.75 14.2 11.75C14.6137 11.75 15.0233 11.8315 15.4055 11.9898C15.7876 12.1481 16.1349 12.3801 16.4274 12.6726C16.7199 12.9651 16.9519 13.3124 17.1102 13.6945C17.2685 14.0767 17.35 14.4863 17.35 14.9C17.35 15.0989 17.429 15.2897 17.5697 15.4303C17.7103 15.571 17.9011 15.65 18.1 15.65C18.2989 15.65 18.4897 15.571 18.6303 15.4303C18.771 15.2897 18.85 15.0989 18.85 14.9ZM34.45 14.9C34.45 13.6667 33.9601 12.484 33.088 11.612C32.216 10.7399 31.0333 10.25 29.8 10.25C28.5667 10.25 27.384 10.7399 26.512 11.612C25.6399 12.484 25.15 13.6667 25.15 14.9C25.15 15.0989 25.229 15.2897 25.3697 15.4303C25.5103 15.571 25.7011 15.65 25.9 15.65C26.0989 15.65 26.2897 15.571 26.4303 15.4303C26.571 15.2897 26.65 15.0989 26.65 14.9C26.65 14.0646 26.9819 13.2634 27.5726 12.6726C28.1634 12.0819 28.9646 11.75 29.8 11.75C30.6354 11.75 31.4366 12.0819 32.0274 12.6726C32.6181 13.2634 32.95 14.0646 32.95 14.9C32.95 15.0989 33.029 15.2897 33.1697 15.4303C33.3103 15.571 33.5011 15.65 33.7 15.65C33.8989 15.65 34.0897 15.571 34.2303 15.4303C34.371 15.2897 34.45 15.0989 34.45 14.9ZM37.6 20.65C37.4011 20.65 37.2103 20.729 37.0697 20.8697C36.929 21.0103 36.85 21.2011 36.85 21.4C36.8469 23.1912 36.5175 24.9669 35.878 26.64L33.85 24.612C33.2217 23.9837 32.3695 23.6307 31.481 23.6307C30.5925 23.6307 29.7403 23.9837 29.112 24.612C28.4837 25.2403 28.1307 26.0925 28.1307 26.981C28.1307 27.8695 28.4837 28.7217 29.112 29.35L32.057 32.295C29.9403 34.2579 27.2966 35.5601 24.4503 36.0419C21.6041 36.5236 18.6791 36.164 16.0343 35.0071C13.3895 33.8502 11.14 31.9464 9.56178 29.5292C7.98358 27.112 7.14537 24.2867 7.15 21.4C7.15 21.2011 7.07098 21.0103 6.93033 20.8697C6.78968 20.729 6.59891 20.65 6.4 20.65C6.20109 20.65 6.01032 20.729 5.86967 20.8697C5.72902 21.0103 5.65 21.2011 5.65 21.4C5.65 30.43 12.97 37.75 22 37.75C31.03 37.75 38.35 30.43 38.35 21.4C38.35 21.2011 38.271 21.0103 38.1303 20.8697C37.9897 20.729 37.7989 20.65 37.6 20.65ZM33.107 31.224L30.172 28.289C29.8251 27.942 29.6303 27.4713 29.6304 26.9806C29.6304 26.49 29.8255 26.0194 30.1725 25.6725C30.5195 25.3256 30.9902 25.1308 31.4809 25.1309C31.9715 25.1309 32.4421 25.326 32.789 25.673L35.166 28.05C35.1884 28.0667 35.2118 28.0821 35.236 28.096C34.6621 29.2251 33.9473 30.2763 33.107 31.224Z" fill="#FEFAF5"/>
</svg>
