<svg width="27" height="25" viewBox="0 0 27 25" fill="none" xmlns="http://www.w3.org/2000/svg">
<path d="M1.92383 18.288H25.0755V18.5417C25.0755 19.7114 24.6108 20.8332 23.7837 21.6603C22.9566 22.4875 21.8348 22.9521 20.6651 22.9521H6.33425C5.16453 22.9521 4.04272 22.4875 3.21561 21.6603C2.3885 20.8332 1.92383 19.7114 1.92383 18.5417V18.3242V18.288Z" stroke="black" stroke-width="2.41667" stroke-miterlimit="10"/>
<path d="M13.4997 6.71204C16.5698 6.71204 19.5141 7.93163 21.685 10.1025C23.8559 12.2734 25.0755 15.2178 25.0755 18.2879H1.92383C1.92383 15.2178 3.14342 12.2734 5.31431 10.1025C7.4852 7.93163 10.4296 6.71204 13.4997 6.71204Z" stroke="black" stroke-width="2.41667" stroke-miterlimit="10"/>
<path d="M13.4997 6.71214C14.781 6.71214 15.8197 5.67344 15.8197 4.39214C15.8197 3.11084 14.781 2.07214 13.4997 2.07214C12.2184 2.07214 11.1797 3.11084 11.1797 4.39214C11.1797 5.67344 12.2184 6.71214 13.4997 6.71214Z" stroke="black" stroke-width="2.41667" stroke-miterlimit="10"/>
</svg>
