<svg width="342" height="451" viewBox="0 0 342 451" fill="none" xmlns="http://www.w3.org/2000/svg">
<g clip-path="url(#clip0_196_574)">
<rect width="342" height="451" rx="30.9178" fill="#F7D1C5"/>
<path d="M53.4012 272.04V269.06L57.0812 266.92H59.6012V280H56.7012V270.06L53.4012 272.04ZM64.8988 269.36V271.58C65.1922 271.54 65.4855 271.52 65.7788 271.52C67.2055 271.52 68.2988 271.887 69.0588 272.62C69.8188 273.353 70.1988 274.353 70.1988 275.62C70.1988 276.98 69.7455 278.073 68.8388 278.9C67.9455 279.713 66.6722 280.12 65.0188 280.12C63.5655 280.12 62.3922 279.887 61.4988 279.42V276.66C62.4055 277.22 63.4188 277.5 64.5388 277.5C66.3255 277.5 67.2188 276.86 67.2188 275.58C67.2188 275.1 67.0322 274.72 66.6588 274.44C66.2988 274.16 65.7522 274.02 65.0188 274.02C63.9922 274.02 63.0055 274.24 62.0588 274.68V266.88H69.3988V269.36H64.8988Z" fill="black"/>
<path d="M107.817 221.2V218.48C108.804 217.987 109.797 217.74 110.797 217.74C112.211 217.74 113.331 218.08 114.157 218.76C114.984 219.427 115.397 220.3 115.397 221.38C115.397 222.86 114.724 223.88 113.377 224.44C114.897 224.8 115.657 225.787 115.657 227.4C115.657 228.52 115.231 229.42 114.377 230.1C113.537 230.767 112.357 231.1 110.837 231.1C109.411 231.1 108.231 230.873 107.297 230.42V227.62C108.364 228.207 109.464 228.5 110.597 228.5C111.251 228.5 111.757 228.36 112.117 228.08C112.491 227.8 112.677 227.447 112.677 227.02C112.677 226.047 111.777 225.56 109.977 225.56H109.277V223.16H109.977C110.684 223.16 111.264 223.04 111.717 222.8C112.171 222.56 112.397 222.2 112.397 221.72C112.397 220.8 111.797 220.34 110.597 220.34C109.677 220.34 108.751 220.627 107.817 221.2ZM117.065 224.4C117.065 222.32 117.465 220.673 118.265 219.46C119.065 218.247 120.252 217.64 121.825 217.64C123.399 217.64 124.585 218.247 125.385 219.46C126.199 220.673 126.605 222.32 126.605 224.4C126.605 226.453 126.199 228.093 125.385 229.32C124.585 230.547 123.399 231.16 121.825 231.16C120.252 231.16 119.065 230.553 118.265 229.34C117.465 228.113 117.065 226.467 117.065 224.4ZM121.825 220.24C120.639 220.24 120.045 221.627 120.045 224.4C120.045 227.173 120.639 228.56 121.825 228.56C123.025 228.56 123.625 227.173 123.625 224.4C123.625 221.627 123.025 220.24 121.825 220.24Z" fill="black"/>
<path d="M198.631 189.36V191.58C198.925 191.54 199.218 191.52 199.511 191.52C200.938 191.52 202.031 191.887 202.791 192.62C203.551 193.353 203.931 194.353 203.931 195.62C203.931 196.98 203.478 198.073 202.571 198.9C201.678 199.713 200.405 200.12 198.751 200.12C197.298 200.12 196.125 199.887 195.231 199.42V196.66C196.138 197.22 197.151 197.5 198.271 197.5C200.058 197.5 200.951 196.86 200.951 195.58C200.951 195.1 200.765 194.72 200.391 194.44C200.031 194.16 199.485 194.02 198.751 194.02C197.725 194.02 196.738 194.24 195.791 194.68V186.88H203.131V189.36H198.631ZM205.231 193.4C205.231 191.32 205.631 189.673 206.431 188.46C207.231 187.247 208.418 186.64 209.991 186.64C211.565 186.64 212.751 187.247 213.551 188.46C214.365 189.673 214.771 191.32 214.771 193.4C214.771 195.453 214.365 197.093 213.551 198.32C212.751 199.547 211.565 200.16 209.991 200.16C208.418 200.16 207.231 199.553 206.431 198.34C205.631 197.113 205.231 195.467 205.231 193.4ZM209.991 189.24C208.805 189.24 208.211 190.627 208.211 193.4C208.211 196.173 208.805 197.56 209.991 197.56C211.191 197.56 211.791 196.173 211.791 193.4C211.791 190.627 211.191 189.24 209.991 189.24Z" fill="black"/>
<path d="M258.595 132.9H267.395V135.38L262.315 146H259.235L264.335 135.38H258.595V132.9ZM271.905 135.36V137.58C272.198 137.54 272.491 137.52 272.785 137.52C274.211 137.52 275.305 137.887 276.065 138.62C276.825 139.353 277.205 140.353 277.205 141.62C277.205 142.98 276.751 144.073 275.845 144.9C274.951 145.713 273.678 146.12 272.025 146.12C270.571 146.12 269.398 145.887 268.505 145.42V142.66C269.411 143.22 270.425 143.5 271.545 143.5C273.331 143.5 274.225 142.86 274.225 141.58C274.225 141.1 274.038 140.72 273.665 140.44C273.305 140.16 272.758 140.02 272.025 140.02C270.998 140.02 270.011 140.24 269.065 140.68V132.88H276.405V135.36H271.905Z" fill="black"/>
<path d="M303.464 104.04V101.06L307.144 98.92H309.664V112H306.764V102.06L303.464 104.04ZM311.561 105.4C311.561 103.32 311.961 101.673 312.761 100.46C313.561 99.2467 314.748 98.64 316.321 98.64C317.895 98.64 319.081 99.2467 319.881 100.46C320.695 101.673 321.101 103.32 321.101 105.4C321.101 107.453 320.695 109.093 319.881 110.32C319.081 111.547 317.895 112.16 316.321 112.16C314.748 112.16 313.561 111.553 312.761 110.34C311.961 109.113 311.561 107.467 311.561 105.4ZM316.321 101.24C315.135 101.24 314.541 102.627 314.541 105.4C314.541 108.173 315.135 109.56 316.321 109.56C317.521 109.56 318.121 108.173 318.121 105.4C318.121 102.627 317.521 101.24 316.321 101.24ZM322.499 105.4C322.499 103.32 322.899 101.673 323.699 100.46C324.499 99.2467 325.685 98.64 327.259 98.64C328.832 98.64 330.019 99.2467 330.819 100.46C331.632 101.673 332.039 103.32 332.039 105.4C332.039 107.453 331.632 109.093 330.819 110.32C330.019 111.547 328.832 112.16 327.259 112.16C325.685 112.16 324.499 111.553 323.699 110.34C322.899 109.113 322.499 107.467 322.499 105.4ZM327.259 101.24C326.072 101.24 325.479 102.627 325.479 105.4C325.479 108.173 326.072 109.56 327.259 109.56C328.459 109.56 329.059 108.173 329.059 105.4C329.059 102.627 328.459 101.24 327.259 101.24Z" fill="black"/>
<rect x="29.9062" y="149.913" width="173.338" height="29" transform="rotate(-31.2822 29.9062 149.913)" fill="white"/>
<path d="M67.725 152.655L61.563 140.626L63.3235 139.556L67.3994 142.837L72.5063 147.082C72.0318 144.812 71.5943 142.628 71.1939 140.531L70.2288 135.361L71.9893 134.291L79.9973 145.198L78.6128 146.04L75.4573 141.732L71.9419 136.871C72.3626 138.924 72.7767 141.005 73.184 143.113L74.184 148.379L72.8678 149.179L68.74 145.813L63.9537 141.864C64.2237 142.309 65.1297 144.044 66.6718 147.07L69.1095 151.814L67.725 152.655ZM82.6026 143.616L75.603 132.095L76.9875 131.254L83.9871 142.774L82.6026 143.616ZM86.723 141.112L79.7235 129.592L81.4669 128.532L87.3049 131.632L93.2601 134.847C92.543 133.769 91.5129 132.125 90.1697 129.914L87.21 125.043L88.5944 124.202L95.594 135.722L93.8506 136.781L88.0334 133.716C86.8637 133.101 85.7812 132.526 84.7858 131.992C83.7835 131.446 83.069 131.054 82.6424 130.814L82.0299 130.46C82.8069 131.611 83.8496 133.263 85.1582 135.417L88.1075 140.271L86.723 141.112ZM102.611 125.515L98.2491 118.336L99.6336 117.495L103.975 124.639C104.875 126.121 105.181 127.471 104.892 128.692C104.616 129.905 103.811 130.917 102.477 131.727C101.167 132.523 99.9163 132.776 98.7257 132.485C97.528 132.183 96.4965 131.32 95.6311 129.896L91.207 122.614L92.5915 121.773L97.0052 129.038C97.6491 130.097 98.374 130.725 99.18 130.922C99.9974 131.112 100.833 130.947 101.688 130.428C103.591 129.272 103.899 127.634 102.611 125.515ZM108.838 111.902L109.576 113.115L106.465 115.006L112.727 125.312L111.343 126.153L105.08 115.847L101.97 117.737L101.232 116.523L108.838 111.902ZM118.133 120.366L123.175 117.302L123.913 118.516L117.486 122.421L110.486 110.901L116.828 107.048L117.565 108.261L112.608 111.273L115.007 115.221L119.383 112.563L120.12 113.776L115.745 116.435L118.133 120.366ZM125.343 102.459L126.225 103.912C125.253 103.879 124.283 104.156 123.314 104.745C122.619 105.167 122.167 105.668 121.958 106.248C121.741 106.816 121.792 107.362 122.111 107.886C122.277 108.16 122.477 108.374 122.711 108.528C122.957 108.675 123.275 108.763 123.666 108.79C124.05 108.806 124.371 108.807 124.627 108.792C124.876 108.765 125.261 108.718 125.782 108.651C126.273 108.587 126.652 108.544 126.92 108.522C127.18 108.488 127.536 108.483 127.986 108.505C128.442 108.51 128.811 108.566 129.095 108.674C129.384 108.764 129.691 108.936 130.017 109.19C130.348 109.426 130.628 109.732 130.856 110.108C131.472 111.123 131.602 112.12 131.247 113.101C130.884 114.07 130.155 114.887 129.061 115.552C127.854 116.285 126.679 116.664 125.538 116.686L124.635 115.199C125.847 115.32 127.052 115.017 128.248 114.29C128.966 113.854 129.433 113.352 129.65 112.784C129.866 112.215 129.791 111.629 129.424 111.025C129.272 110.775 129.085 110.584 128.865 110.452C128.649 110.302 128.379 110.217 128.054 110.196C127.734 110.157 127.44 110.148 127.173 110.17C126.91 110.174 126.559 110.2 126.12 110.248C126.031 110.255 125.901 110.272 125.729 110.298C125.108 110.379 124.624 110.431 124.279 110.454C123.945 110.469 123.522 110.453 123.01 110.406C122.502 110.34 122.061 110.179 121.687 109.923C121.312 109.666 120.983 109.305 120.7 108.837C120.104 107.858 119.988 106.883 120.351 105.914C120.718 104.926 121.431 104.11 122.491 103.466C123.482 102.864 124.433 102.528 125.343 102.459ZM138.746 98.0366L139.525 99.3186C138.807 99.318 137.992 99.5946 137.08 100.148C136.624 100.425 136.326 100.755 136.184 101.138C136.046 101.502 136.078 101.85 136.279 102.18C136.403 102.385 136.554 102.543 136.731 102.654C136.9 102.754 137.144 102.809 137.462 102.818C137.791 102.821 138.025 102.82 138.162 102.814C138.303 102.791 138.605 102.748 139.067 102.686C139.976 102.539 140.75 102.529 141.389 102.656C142.027 102.783 142.54 103.165 142.928 103.803C143.378 104.544 143.473 105.29 143.212 106.041C142.962 106.786 142.387 107.432 141.487 107.979C140.438 108.616 139.482 108.955 138.618 108.996L137.818 107.68C138.859 107.672 139.818 107.402 140.695 106.868C141.219 106.55 141.556 106.205 141.705 105.834C141.854 105.463 141.821 105.1 141.606 104.747C141.357 104.337 141.009 104.111 140.563 104.07C140.128 104.022 139.471 104.071 138.591 104.215C137.79 104.359 137.075 104.364 136.448 104.23C135.832 104.09 135.33 103.7 134.942 103.062C134.506 102.344 134.428 101.612 134.707 100.865C134.991 100.1 135.538 99.4711 136.347 98.9795C137.247 98.4326 138.047 98.1183 138.746 98.0366ZM148.397 98.1636L146.893 99.0775C146.164 99.5206 145.703 99.9954 145.512 100.502C145.32 101.008 145.356 101.478 145.619 101.911C145.882 102.344 146.239 102.611 146.69 102.711C147.134 102.8 147.63 102.678 148.177 102.346C148.792 101.972 149.178 101.504 149.335 100.94C149.485 100.365 149.397 99.8102 149.072 99.2747L148.397 98.1636ZM142.185 98.0301L141.364 96.6798C141.771 95.8864 142.505 95.1677 143.564 94.5238C145.741 93.2014 147.501 93.6456 148.844 95.8562L152.177 101.343L150.844 102.153L150.221 101.127C150.227 102.138 149.643 103 148.469 103.713C147.66 104.205 146.859 104.363 146.067 104.189C145.286 104.009 144.675 103.553 144.231 102.824C143.726 101.992 143.648 101.158 143.998 100.322C144.352 99.4667 145.076 98.7069 146.17 98.0423L147.743 97.0868L147.473 96.6424C147.057 95.9587 146.592 95.5394 146.077 95.3845C145.554 95.2182 144.929 95.3566 144.199 95.7997C143.276 96.3605 142.605 97.104 142.185 98.0301ZM156.778 98.5473L148.488 91.7196L149.889 90.8681L153.308 93.7989L156.972 96.9787C156.777 96.4264 156.405 94.8507 155.855 92.2515L154.863 87.846L156.265 86.9944L158.436 97.54L156.778 98.5473ZM165.754 86.4009L165.546 86.0591C165.11 85.3412 164.57 84.8892 163.927 84.7029C163.276 84.5053 162.609 84.6142 161.925 85.0296C161.276 85.4243 160.865 85.9936 160.693 86.7378C160.521 87.4819 160.658 88.3112 161.105 89.2257L165.754 86.4009ZM168.489 89.092L169.257 90.3569C168.8 91.1186 168.087 91.7937 167.118 92.3822C165.808 93.1784 164.506 93.4234 163.212 93.1173C161.923 92.7929 160.877 91.9698 160.073 90.648C159.236 89.2692 158.933 87.9629 159.167 86.7291C159.4 85.4953 160.081 84.5357 161.209 83.8502C162.291 83.1925 163.363 83.0174 164.423 83.3247C165.484 83.6321 166.402 84.4239 167.177 85.7002C167.398 86.0648 167.574 86.4183 167.704 86.7605L161.79 90.3538C162.412 91.1461 163.135 91.604 163.959 91.7274C164.783 91.8509 165.639 91.6426 166.528 91.1026C167.496 90.5141 168.15 89.8439 168.489 89.092ZM174.768 86.1197C175.474 85.6905 175.913 85.0649 176.085 84.243C176.267 83.4142 176.009 82.4244 175.31 81.2735C174.645 80.1796 173.901 79.532 173.077 79.3308C172.252 79.1296 171.532 79.2159 170.917 79.5898C170.199 80.0259 169.777 80.68 169.652 81.5519C169.531 82.4055 169.796 83.3679 170.447 84.439C171.014 85.3734 171.703 85.9927 172.512 86.2969C173.32 86.6011 174.072 86.542 174.768 86.1197ZM170.637 73.5819L171.987 72.7615L179.329 84.8458L177.979 85.6662L177.2 84.3843C177.159 85.704 176.558 86.7169 175.396 87.4231C174.245 88.1223 173.079 88.2454 171.899 87.7923C170.73 87.3324 169.775 86.4927 169.035 85.2735C168.211 83.9175 167.894 82.6124 168.083 81.3583C168.266 80.0927 168.904 79.1276 169.998 78.463C171.126 77.7775 172.298 77.7287 173.513 78.3165L170.637 73.5819ZM179.952 79.6934L175.071 71.66L176.387 70.8603L181.268 78.8937L179.952 79.6934ZM181.165 82.537C180.999 82.2635 180.954 81.9711 181.03 81.6597C181.099 81.3368 181.276 81.0889 181.561 80.9158C181.846 80.7427 182.147 80.6999 182.465 80.7873C182.788 80.8564 183.033 81.0277 183.199 81.3012C183.372 81.586 183.421 81.8842 183.344 82.1956C183.268 82.507 183.082 82.7527 182.786 82.9327C182.49 83.1127 182.186 83.1647 181.875 83.0887C181.575 83.0058 181.338 82.8219 181.165 82.537Z" fill="#DB3512"/>
<line x1="16.684" y1="68.0703" x2="16.684" y2="292.4" stroke="#DB3512" stroke-opacity="0.11" stroke-width="0.877717"/>
<line x1="167.747" y1="68.0703" x2="167.747" y2="292.4" stroke="#DB3512" stroke-opacity="0.11" stroke-width="0.877717"/>
<line x1="268.456" y1="68.0703" x2="268.456" y2="292.4" stroke="#DB3512" stroke-opacity="0.11" stroke-width="0.877717"/>
<line x1="117.392" y1="68.0703" x2="117.392" y2="292.4" stroke="#DB3512" stroke-opacity="0.11" stroke-width="0.877717"/>
<line x1="67.0385" y1="68.0703" x2="67.0385" y2="292.4" stroke="#DB3512" stroke-opacity="0.11" stroke-width="0.877717"/>
<line x1="218.102" y1="68.0703" x2="218.102" y2="292.4" stroke="#DB3512" stroke-opacity="0.11" stroke-width="0.877717"/>
<line x1="318.811" y1="68.0703" x2="318.811" y2="292.4" stroke="#DB3512" stroke-opacity="0.11" stroke-width="0.877717"/>
<rect x="95" y="369" width="144" height="45" fill="white"/>
<path d="M122.69 387V373.52H124.73L128.11 379.2L131.53 385.04C131.477 383.747 131.45 381.807 131.45 379.22V373.52H133.07V387H131.03L127.65 381.36C126.97 380.227 126.344 379.173 125.77 378.2C125.197 377.213 124.79 376.507 124.55 376.08L124.21 375.46C124.277 376.847 124.31 378.8 124.31 381.32V387H122.69ZM142.367 376.86H143.947V387H142.367V385.24C141.834 386.493 140.774 387.12 139.187 387.12C138.187 387.12 137.394 386.827 136.807 386.24C136.234 385.64 135.947 384.84 135.947 383.84V376.86H137.527V383.44C137.527 384.173 137.714 384.733 138.087 385.12C138.461 385.507 138.967 385.7 139.607 385.7C140.447 385.7 141.114 385.407 141.607 384.82C142.114 384.233 142.367 383.44 142.367 382.44V376.86ZM148.428 376.86V378.5C148.988 377.313 149.942 376.72 151.288 376.72C152.848 376.72 153.835 377.38 154.248 378.7C154.542 378.06 154.948 377.573 155.468 377.24C156.002 376.893 156.595 376.72 157.248 376.72C158.302 376.72 159.095 377.02 159.628 377.62C160.162 378.22 160.428 379.027 160.428 380.04V387H158.848V380.44C158.848 378.907 158.202 378.14 156.908 378.14C156.268 378.14 155.695 378.433 155.188 379.02C154.682 379.593 154.428 380.407 154.428 381.46V387H152.848V380.44C152.848 378.907 152.202 378.14 150.908 378.14C150.268 378.14 149.695 378.433 149.188 379.02C148.682 379.593 148.428 380.407 148.428 381.46V387H146.868V376.86H148.428ZM167.855 385.72C168.669 385.72 169.342 385.38 169.875 384.7C170.409 384.02 170.675 383.133 170.675 382.04C170.675 380.787 170.395 379.827 169.835 379.16C169.289 378.48 168.595 378.14 167.755 378.14C167.035 378.14 166.375 378.44 165.775 379.04C165.175 379.64 164.875 380.58 164.875 381.86C164.875 383.207 165.162 384.187 165.735 384.8C166.322 385.413 167.029 385.72 167.855 385.72ZM164.875 372.86V378.38C165.609 377.26 166.635 376.7 167.955 376.7C169.235 376.7 170.282 377.193 171.095 378.18C171.909 379.153 172.315 380.433 172.315 382.02C172.315 383.447 171.929 384.66 171.155 385.66C170.395 386.66 169.342 387.16 167.995 387.16C166.635 387.16 165.595 386.607 164.875 385.5V387H163.295V372.86H164.875ZM181.102 381.28V380.88C181.102 380.04 180.875 379.373 180.422 378.88C179.968 378.373 179.342 378.12 178.542 378.12C177.782 378.12 177.135 378.393 176.602 378.94C176.068 379.487 175.755 380.267 175.662 381.28H181.102ZM182.042 385V386.48C181.255 386.893 180.295 387.1 179.162 387.1C177.628 387.1 176.388 386.633 175.442 385.7C174.508 384.753 174.042 383.507 174.042 381.96C174.042 380.347 174.462 379.073 175.302 378.14C176.142 377.207 177.222 376.74 178.542 376.74C179.808 376.74 180.815 377.147 181.562 377.96C182.308 378.773 182.682 379.927 182.682 381.42C182.682 381.847 182.648 382.24 182.582 382.6H175.662C175.782 383.6 176.162 384.367 176.802 384.9C177.442 385.433 178.282 385.7 179.322 385.7C180.455 385.7 181.362 385.467 182.042 385ZM186.651 376.86V378.64C187.184 377.387 188.104 376.76 189.411 376.76C189.651 376.76 189.838 376.773 189.971 376.8V378.36C189.691 378.267 189.404 378.22 189.111 378.22C188.404 378.22 187.818 378.547 187.351 379.2C186.884 379.853 186.651 380.607 186.651 381.46V387H185.071L185.091 376.86H186.651ZM200.617 387.18C199.164 387.18 198.01 386.693 197.157 385.72C196.317 384.733 195.897 383.493 195.897 382C195.897 380.493 196.33 379.24 197.197 378.24C198.077 377.227 199.217 376.72 200.617 376.72C202.15 376.72 203.33 377.213 204.157 378.2C204.997 379.187 205.417 380.44 205.417 381.96C205.417 383.467 204.99 384.713 204.137 385.7C203.284 386.687 202.11 387.18 200.617 387.18ZM200.617 378.12C199.657 378.12 198.904 378.493 198.357 379.24C197.81 379.987 197.537 380.9 197.537 381.98C197.537 383.033 197.817 383.933 198.377 384.68C198.937 385.413 199.684 385.78 200.617 385.78C201.63 385.78 202.41 385.42 202.957 384.7C203.504 383.967 203.777 383.06 203.777 381.98C203.777 380.86 203.517 379.94 202.997 379.22C202.477 378.487 201.684 378.12 200.617 378.12ZM212.568 372.86V374.3C212.248 374.193 211.941 374.14 211.648 374.14C211.221 374.14 210.868 374.287 210.588 374.58C210.321 374.873 210.188 375.327 210.188 375.94V376.86H212.428V378.14H210.188V387H208.608V378.14H206.868V376.86H208.608V375.92C208.608 374.933 208.868 374.153 209.388 373.58C209.921 373.007 210.654 372.72 211.588 372.72C211.908 372.72 212.234 372.767 212.568 372.86ZM102.091 407L103.071 393.52H105.131L106.911 398.44L109.071 404.72C109.845 402.533 110.605 400.44 111.351 398.44L113.211 393.52H115.271L116.451 407H114.831L114.371 401.68L113.891 395.7C113.185 397.673 112.458 399.667 111.711 401.68L109.831 406.7H108.291L106.511 401.68L104.471 395.82C104.471 396.34 104.345 398.293 104.091 401.68L103.711 407H102.091ZM125.76 401.28V400.88C125.76 400.04 125.533 399.373 125.08 398.88C124.627 398.373 124 398.12 123.2 398.12C122.44 398.12 121.793 398.393 121.26 398.94C120.727 399.487 120.413 400.267 120.32 401.28H125.76ZM126.7 405V406.48C125.913 406.893 124.953 407.1 123.82 407.1C122.287 407.1 121.047 406.633 120.1 405.7C119.167 404.753 118.7 403.507 118.7 401.96C118.7 400.347 119.12 399.073 119.96 398.14C120.8 397.207 121.88 396.74 123.2 396.74C124.467 396.74 125.473 397.147 126.22 397.96C126.967 398.773 127.34 399.927 127.34 401.42C127.34 401.847 127.307 402.24 127.24 402.6H120.32C120.44 403.6 120.82 404.367 121.46 404.9C122.1 405.433 122.94 405.7 123.98 405.7C125.113 405.7 126.02 405.467 126.7 405ZM135.209 402.32H133.449C132.596 402.32 131.956 402.487 131.529 402.82C131.102 403.153 130.889 403.573 130.889 404.08C130.889 404.587 131.056 405 131.389 405.32C131.722 405.627 132.209 405.78 132.849 405.78C133.569 405.78 134.142 405.58 134.569 405.18C134.996 404.767 135.209 404.247 135.209 403.62V402.32ZM129.969 398.98V397.4C130.729 396.933 131.729 396.7 132.969 396.7C135.516 396.7 136.789 397.993 136.789 400.58V407H135.229V405.8C134.709 406.667 133.762 407.1 132.389 407.1C131.442 407.1 130.676 406.82 130.089 406.26C129.516 405.7 129.229 404.993 129.229 404.14C129.229 403.167 129.596 402.413 130.329 401.88C131.076 401.333 132.089 401.06 133.369 401.06H135.209V400.54C135.209 399.74 135.029 399.14 134.669 398.74C134.309 398.327 133.702 398.12 132.849 398.12C131.769 398.12 130.809 398.407 129.969 398.98ZM139.673 407V392.86H141.253V407H139.673ZM149.781 397.2V398.7C149.167 398.327 148.327 398.14 147.261 398.14C146.727 398.14 146.301 398.267 145.981 398.52C145.674 398.76 145.521 399.073 145.521 399.46C145.521 399.7 145.567 399.913 145.661 400.1C145.754 400.273 145.934 400.447 146.201 400.62C146.481 400.793 146.681 400.913 146.801 400.98C146.934 401.033 147.214 401.153 147.641 401.34C148.494 401.687 149.161 402.08 149.641 402.52C150.121 402.96 150.361 403.553 150.361 404.3C150.361 405.167 150.054 405.853 149.441 406.36C148.841 406.867 148.014 407.12 146.961 407.12C145.734 407.12 144.741 406.913 143.981 406.5V404.96C144.874 405.493 145.834 405.76 146.861 405.76C147.474 405.76 147.941 405.64 148.261 405.4C148.581 405.16 148.741 404.833 148.741 404.42C148.741 403.94 148.561 403.567 148.201 403.3C147.854 403.033 147.267 402.733 146.441 402.4C145.681 402.107 145.067 401.74 144.601 401.3C144.147 400.86 143.921 400.267 143.921 399.52C143.921 398.68 144.234 398.013 144.861 397.52C145.501 397.013 146.294 396.76 147.241 396.76C148.294 396.76 149.141 396.907 149.781 397.2ZM159.086 400.66H161.166C162.179 400.66 162.972 400.4 163.546 399.88C164.119 399.347 164.406 398.673 164.406 397.86C164.406 396.953 164.112 396.233 163.526 395.7C162.939 395.167 162.106 394.9 161.026 394.9H159.086V400.66ZM157.466 393.52H161.006C162.566 393.52 163.792 393.927 164.686 394.74C165.592 395.54 166.046 396.58 166.046 397.86C166.046 399.06 165.599 400.06 164.706 400.86C163.812 401.647 162.632 402.04 161.166 402.04H159.086V407H157.466V393.52ZM169.844 396.86V398.64C170.378 397.387 171.298 396.76 172.604 396.76C172.844 396.76 173.031 396.773 173.164 396.8V398.36C172.884 398.267 172.598 398.22 172.304 398.22C171.598 398.22 171.011 398.547 170.544 399.2C170.078 399.853 169.844 400.607 169.844 401.46V407H168.264L168.284 396.86H169.844ZM181.268 401.28V400.88C181.268 400.04 181.041 399.373 180.588 398.88C180.134 398.373 179.508 398.12 178.708 398.12C177.948 398.12 177.301 398.393 176.768 398.94C176.234 399.487 175.921 400.267 175.828 401.28H181.268ZM182.208 405V406.48C181.421 406.893 180.461 407.1 179.328 407.1C177.794 407.1 176.554 406.633 175.608 405.7C174.674 404.753 174.208 403.507 174.208 401.96C174.208 400.347 174.628 399.073 175.468 398.14C176.308 397.207 177.388 396.74 178.708 396.74C179.974 396.74 180.981 397.147 181.728 397.96C182.474 398.773 182.848 399.927 182.848 401.42C182.848 401.847 182.814 402.24 182.748 402.6H175.828C175.948 403.6 176.328 404.367 176.968 404.9C177.608 405.433 178.448 405.7 179.488 405.7C180.621 405.7 181.528 405.467 182.208 405ZM189.717 405.72C190.57 405.72 191.27 405.387 191.817 404.72C192.364 404.04 192.637 403.08 192.637 401.84C192.637 400.733 192.37 399.84 191.837 399.16C191.304 398.48 190.63 398.14 189.817 398.14C189.004 398.14 188.297 398.44 187.697 399.04C187.11 399.627 186.817 400.593 186.817 401.94C186.817 403.233 187.117 404.187 187.717 404.8C188.317 405.413 188.984 405.72 189.717 405.72ZM186.817 396.86V398.4C187.524 397.267 188.57 396.7 189.957 396.7C191.304 396.7 192.357 397.193 193.117 398.18C193.89 399.153 194.277 400.373 194.277 401.84C194.277 403.4 193.87 404.68 193.057 405.68C192.257 406.667 191.21 407.16 189.917 407.16C188.584 407.16 187.55 406.593 186.817 405.46V410.94H185.257V396.86H186.817ZM202.065 402.32H200.305C199.451 402.32 198.811 402.487 198.385 402.82C197.958 403.153 197.745 403.573 197.745 404.08C197.745 404.587 197.911 405 198.245 405.32C198.578 405.627 199.065 405.78 199.705 405.78C200.425 405.78 200.998 405.58 201.425 405.18C201.851 404.767 202.065 404.247 202.065 403.62V402.32ZM196.825 398.98V397.4C197.585 396.933 198.585 396.7 199.825 396.7C202.371 396.7 203.645 397.993 203.645 400.58V407H202.085V405.8C201.565 406.667 200.618 407.1 199.245 407.1C198.298 407.1 197.531 406.82 196.945 406.26C196.371 405.7 196.085 404.993 196.085 404.14C196.085 403.167 196.451 402.413 197.185 401.88C197.931 401.333 198.945 401.06 200.225 401.06H202.065V400.54C202.065 399.74 201.885 399.14 201.525 398.74C201.165 398.327 200.558 398.12 199.705 398.12C198.625 398.12 197.665 398.407 196.825 398.98ZM208.008 396.86V398.64C208.542 397.387 209.462 396.76 210.768 396.76C211.008 396.76 211.195 396.773 211.328 396.8V398.36C211.048 398.267 210.762 398.22 210.468 398.22C209.762 398.22 209.175 398.547 208.708 399.2C208.242 399.853 208.008 400.607 208.008 401.46V407H206.428L206.448 396.86H208.008ZM219.432 401.28V400.88C219.432 400.04 219.205 399.373 218.752 398.88C218.298 398.373 217.672 398.12 216.872 398.12C216.112 398.12 215.465 398.393 214.932 398.94C214.398 399.487 214.085 400.267 213.992 401.28H219.432ZM220.372 405V406.48C219.585 406.893 218.625 407.1 217.492 407.1C215.958 407.1 214.718 406.633 213.772 405.7C212.838 404.753 212.372 403.507 212.372 401.96C212.372 400.347 212.792 399.073 213.632 398.14C214.472 397.207 215.552 396.74 216.872 396.74C218.138 396.74 219.145 397.147 219.892 397.96C220.638 398.773 221.012 399.927 221.012 401.42C221.012 401.847 220.978 402.24 220.912 402.6H213.992C214.112 403.6 214.492 404.367 215.132 404.9C215.772 405.433 216.612 405.7 217.652 405.7C218.785 405.7 219.692 405.467 220.372 405ZM227.281 405.72C228.108 405.72 228.808 405.413 229.381 404.8C229.968 404.187 230.261 403.207 230.261 401.86C230.261 400.58 229.961 399.64 229.361 399.04C228.761 398.44 228.101 398.14 227.381 398.14C226.541 398.14 225.841 398.48 225.281 399.16C224.734 399.827 224.461 400.787 224.461 402.04C224.461 403.133 224.728 404.02 225.261 404.7C225.794 405.38 226.468 405.72 227.281 405.72ZM230.261 392.86H231.841V407H230.261V405.5C229.541 406.607 228.501 407.16 227.141 407.16C225.794 407.16 224.734 406.66 223.961 405.66C223.201 404.66 222.821 403.447 222.821 402.02C222.821 400.433 223.228 399.153 224.041 398.18C224.854 397.193 225.901 396.7 227.181 396.7C228.501 396.7 229.528 397.267 230.261 398.4V392.86Z" fill="#DB3512"/>
<path d="M11 295C39.9882 293.364 59.5598 237.051 91.3866 215.492C132.49 187.649 153.635 199.594 178.776 189.227C202.26 179.543 240.929 134.333 266.602 94.7077C286.036 67.9733 314 67.9998 314 67.9998" stroke="#DB3512" stroke-width="3.42"/>
<g clip-path="url(#clip1_196_574)">
<path d="M314 81.625C323.182 81.625 330.625 74.1817 330.625 65C330.625 55.8183 323.182 48.375 314 48.375C304.818 48.375 297.375 55.8183 297.375 65C297.375 74.1817 304.818 81.625 314 81.625Z" stroke="black" stroke-width="3.16667" stroke-miterlimit="10"/>
<path d="M314 81.625C323.182 81.625 330.625 74.1817 330.625 65C330.625 55.8183 323.182 48.375 314 48.375C304.818 48.375 297.375 55.8183 297.375 65C297.375 74.1817 304.818 81.625 314 81.625Z" fill="#DB3512" stroke="black" stroke-width="3.16667" stroke-miterlimit="10"/>
<path d="M314 66.5042C314.831 66.5042 315.504 65.8307 315.504 65C315.504 64.1693 314.831 63.4958 314 63.4958C313.17 63.4958 312.496 64.1693 312.496 65C312.496 65.8307 313.17 66.5042 314 66.5042Z" stroke="black" stroke-width="3.16667" stroke-miterlimit="10"/>
<path d="M314 52.9033V63.4958" stroke="black" stroke-width="3.16667" stroke-miterlimit="10"/>
<path d="M321.552 72.5525L315.504 66.5042" stroke="black" stroke-width="3.16667" stroke-miterlimit="10"/>
</g>
<g clip-path="url(#clip2_196_574)">
<path d="M51 162.875C55.3492 162.875 58.875 159.349 58.875 155C58.875 150.651 55.3492 147.125 51 147.125C46.6508 147.125 43.125 150.651 43.125 155C43.125 159.349 46.6508 162.875 51 162.875Z" stroke="black" stroke-width="1.5" stroke-miterlimit="10"/>
<path d="M51 162.875C55.3492 162.875 58.875 159.349 58.875 155C58.875 150.651 55.3492 147.125 51 147.125C46.6508 147.125 43.125 150.651 43.125 155C43.125 159.349 46.6508 162.875 51 162.875Z" stroke="#DB3512" stroke-width="1.5" stroke-miterlimit="10"/>
<path d="M50.9996 155.712C51.3931 155.712 51.7121 155.393 51.7121 155C51.7121 154.606 51.3931 154.287 50.9996 154.287C50.6061 154.287 50.2871 154.606 50.2871 155C50.2871 155.393 50.6061 155.712 50.9996 155.712Z" stroke="#DB3512" stroke-width="1.5" stroke-miterlimit="10"/>
<path d="M51 149.27V154.288" stroke="#DB3512" stroke-width="1.5" stroke-miterlimit="10"/>
<path d="M54.5779 158.578L51.7129 155.713" stroke="#DB3512" stroke-width="1.5" stroke-miterlimit="10"/>
</g>
<path d="M10.8457 324.875V323.6L13.1707 322.19H14.2807V332H13.1107V323.48L10.8457 324.875Z" fill="#DB3512"/>
<path d="M65.4989 329.965H70.0589V331H63.8639V329.995C66.9639 327.655 68.5139 325.705 68.5139 324.145C68.5139 323.525 68.3339 323.05 67.9739 322.72C67.6139 322.38 67.1289 322.21 66.5189 322.21C65.7289 322.21 64.9489 322.505 64.1789 323.095V321.91C64.8889 321.36 65.7039 321.085 66.6239 321.085C67.5039 321.085 68.2439 321.34 68.8439 321.85C69.4439 322.36 69.7439 323.085 69.7439 324.025C69.7439 325.795 68.3289 327.775 65.4989 329.965Z" fill="#DB3512"/>
<path d="M114.376 323.795V322.64C114.956 322.27 115.626 322.085 116.386 322.085C117.356 322.085 118.106 322.335 118.636 322.835C119.176 323.325 119.446 323.935 119.446 324.665C119.446 325.195 119.311 325.67 119.041 326.09C118.781 326.51 118.391 326.825 117.871 327.035C118.441 327.165 118.891 327.43 119.221 327.83C119.561 328.22 119.731 328.71 119.731 329.3C119.731 330.1 119.451 330.765 118.891 331.295C118.331 331.825 117.541 332.09 116.521 332.09C115.581 332.09 114.766 331.925 114.076 331.595V330.41C114.816 330.8 115.621 330.995 116.491 330.995C117.131 330.995 117.626 330.83 117.976 330.5C118.336 330.17 118.516 329.74 118.516 329.21C118.516 328.68 118.316 328.275 117.916 327.995C117.526 327.705 116.961 327.56 116.221 327.56H115.591V326.525H116.221C116.781 326.525 117.251 326.37 117.631 326.06C118.021 325.74 118.216 325.315 118.216 324.785C118.216 324.255 118.051 323.855 117.721 323.585C117.391 323.315 116.936 323.18 116.356 323.18C115.666 323.18 115.006 323.385 114.376 323.795Z" fill="#DB3512"/>
<path d="M164.78 329.58H168.065V323.895L164.78 329.58ZM170.69 329.58V330.615H169.235V333H168.065V330.615H163.58V329.58L167.315 323.19H169.235V329.58H170.69Z" fill="#DB3512"/>
<path d="M216.719 323.225V326.165C217.169 326.065 217.559 326.015 217.889 326.015C218.889 326.015 219.679 326.28 220.259 326.81C220.849 327.34 221.144 328.05 221.144 328.94C221.144 329.91 220.824 330.685 220.184 331.265C219.554 331.835 218.689 332.12 217.589 332.12C216.599 332.12 215.759 331.95 215.069 331.61V330.44C215.709 330.82 216.484 331.01 217.394 331.01C219.074 331.01 219.914 330.305 219.914 328.895C219.914 328.325 219.719 327.885 219.329 327.575C218.939 327.255 218.434 327.095 217.814 327.095C217.084 327.095 216.329 327.27 215.549 327.62V322.19H220.469V323.225H216.719Z" fill="#DB3512"/>
<path d="M268.312 331.07C268.882 331.07 269.332 330.86 269.662 330.44C270.002 330.02 270.172 329.47 270.172 328.79C270.172 328.17 270.002 327.675 269.662 327.305C269.332 326.935 268.897 326.75 268.357 326.75C267.457 326.75 266.677 327.115 266.017 327.845C266.057 328.905 266.282 329.71 266.692 330.26C267.112 330.8 267.652 331.07 268.312 331.07ZM270.712 322.13V323.285C270.282 323.095 269.827 323 269.347 323C268.407 323 267.657 323.355 267.097 324.065C266.537 324.765 266.192 325.65 266.062 326.72C266.722 326.03 267.537 325.685 268.507 325.685C269.407 325.685 270.112 325.97 270.622 326.54C271.142 327.11 271.402 327.865 271.402 328.805C271.402 329.805 271.117 330.615 270.547 331.235C269.987 331.855 269.242 332.165 268.312 332.165C267.192 332.165 266.332 331.74 265.732 330.89C265.132 330.04 264.832 328.93 264.832 327.56C264.832 325.93 265.232 324.58 266.032 323.51C266.832 322.44 267.932 321.905 269.332 321.905C269.782 321.905 270.242 321.98 270.712 322.13Z" fill="#DB3512"/>
<path d="M314.796 322.19H321.201V323.225L317.136 332H315.876L319.941 323.225H314.796V322.19Z" fill="#DB3512"/>
<path d="M320 351L14 352" stroke="#DB3512" stroke-width="2" stroke-miterlimit="10"/>
<path d="M314 342L321.64 350.595L314 359.19" stroke="#DB3512" stroke-width="2" stroke-miterlimit="10"/>
<path d="M175.458 125.547L127.322 156.274" stroke="#DB3512" stroke-width="2" stroke-miterlimit="10"/>
<path d="M163.887 122.215L174.938 125.397L173.074 136.744" stroke="#DB3512" stroke-width="2" stroke-miterlimit="10"/>
</g>
<defs>
<clipPath id="clip0_196_574">
<rect width="342" height="451" rx="30.9178" fill="white"/>
</clipPath>
<clipPath id="clip1_196_574">
<rect width="38" height="38" fill="white" transform="translate(295 46)"/>
</clipPath>
<clipPath id="clip2_196_574">
<rect width="18" height="18" fill="white" transform="translate(42 146)"/>
</clipPath>
</defs>
</svg>
