<svg width="38" height="39" viewBox="0 0 38 39" fill="none" xmlns="http://www.w3.org/2000/svg">
<path d="M37.5747 26.0403C37.6933 25.9215 37.7599 25.7605 37.7599 25.5927C37.7599 25.4249 37.6933 25.2639 37.5747 25.1452L34.2898 21.8603C34.1176 21.6836 33.9039 21.5528 33.6682 21.4798C33.4325 21.4068 33.1823 21.3939 32.9404 21.4423C32.6872 21.4923 32.4502 21.6036 32.25 21.7664C32.0498 21.9292 31.8925 22.1386 31.7919 22.3762C31.6421 22.7207 31.4202 23.0292 31.1411 23.2806C30.862 23.5321 30.5323 23.7209 30.1741 23.8341C29.8159 23.9473 29.4375 23.9825 29.0646 23.9371C28.6917 23.8917 28.3328 23.7669 28.0122 23.5711C27.67 23.3597 27.3801 23.0737 27.1641 22.7345C26.9481 22.3952 26.8117 22.0115 26.765 21.612C26.7012 21.0538 26.8182 20.4899 27.0988 20.0032C27.3794 19.5164 27.8088 19.1326 28.3238 18.9081C28.8085 18.7037 29.1598 18.2722 29.2628 17.7571C29.3104 17.5173 29.2974 17.2695 29.2252 17.036C29.1529 16.8024 29.0237 16.5906 28.849 16.4195L22.2193 9.76698C22.1956 9.74527 22.178 9.71767 22.1683 9.68697C22.1587 9.65627 22.1573 9.62357 22.1644 9.59218C22.1722 9.55579 22.1891 9.522 22.2136 9.49405C22.2382 9.46611 22.2695 9.44494 22.3046 9.43258C22.8406 9.21582 23.3218 8.8826 23.7132 8.45705C24.1046 8.03149 24.3965 7.52424 24.5678 6.972C24.739 6.41976 24.7854 5.83635 24.7035 5.26399C24.6216 4.69163 24.4135 4.14464 24.0942 3.6626C23.7749 3.18057 23.3524 2.77555 22.8574 2.47685C22.3623 2.17816 21.807 1.99326 21.2317 1.93555C20.6564 1.87783 20.0755 1.94873 19.5309 2.14313C18.9864 2.33753 18.4919 2.65055 18.0832 3.05955C17.7167 3.42604 17.4288 3.86178 17.2354 4.34311C17.2218 4.38102 17.1987 4.41485 17.1684 4.44144C17.1382 4.46802 17.1016 4.48649 17.0623 4.49511C17.0319 4.50182 17.0004 4.50043 16.9707 4.4911C16.9411 4.48176 16.9144 4.4648 16.8934 4.44191L13.5469 1.09538C13.4281 0.976774 13.2671 0.910156 13.0993 0.910156C12.9315 0.910156 12.7705 0.976774 12.6518 1.09538L9.36687 4.38027C9.19057 4.55294 9.06004 4.76679 8.98707 5.00253C8.91409 5.23826 8.90096 5.48846 8.94887 5.73053C9.0502 6.24395 9.40064 6.67378 9.88282 6.87813C10.2275 7.0277 10.5361 7.24951 10.7878 7.52857C11.0394 7.80762 11.2283 8.13743 11.3415 8.49572C11.4548 8.85401 11.4899 9.23244 11.4444 9.60544C11.3988 9.97844 11.2738 10.3373 11.0777 10.6579C10.8665 11 10.5807 11.2899 10.2415 11.5059C9.9024 11.7219 9.5188 11.8584 9.11944 11.9051C8.56112 11.9691 7.997 11.8522 7.5101 11.5716C7.02319 11.2909 6.63922 10.8614 6.41469 10.3463C6.31387 10.1077 6.15621 9.89734 5.95544 9.73366C5.75467 9.56998 5.51689 9.45792 5.26287 9.40724C5.02309 9.3591 4.77508 9.37173 4.54144 9.44401C4.3078 9.51628 4.09597 9.64589 3.92527 9.82102L0.631932 13.1144C0.573078 13.1732 0.526391 13.243 0.494538 13.3199C0.462684 13.3967 0.446289 13.4791 0.446289 13.5623C0.446289 13.6455 0.462684 13.7279 0.494538 13.8048C0.526391 13.8817 0.573078 13.9515 0.631932 14.0103L3.98015 17.3585C4.02829 17.4024 4.04771 17.4692 4.0342 17.5325C4.02668 17.5689 4.00991 17.6028 3.98551 17.6309C3.96111 17.659 3.9299 17.6804 3.89487 17.6929C3.36746 17.9038 2.89259 18.2276 2.50358 18.6414C2.11457 19.0553 1.82084 19.5493 1.64301 20.0888C1.46518 20.6282 1.40755 21.2001 1.47417 21.7641C1.54079 22.3282 1.73004 22.8709 2.02864 23.3541C2.34136 23.8574 2.7639 24.2835 3.26462 24.6004C3.76534 24.9173 4.33127 25.1168 4.92002 25.184C5.76416 25.2816 6.61701 25.0994 7.34758 24.6654C8.07816 24.2314 8.64606 23.5696 8.96407 22.7816C8.97742 22.7438 9.00015 22.71 9.03014 22.6834C9.06012 22.6568 9.09637 22.6383 9.13549 22.6296C9.16591 22.6234 9.19741 22.6251 9.22698 22.6346C9.25655 22.644 9.28319 22.6609 9.30438 22.6836L15.9333 29.3344C16.1043 29.5094 16.3163 29.6389 16.55 29.7111C16.7837 29.7834 17.0318 29.7961 17.2717 29.7482C17.5257 29.6975 17.7635 29.5855 17.9643 29.4218C18.1651 29.2581 18.3227 29.0478 18.4235 28.8092C18.6464 28.2928 19.0301 27.8621 19.5174 27.5812C20.0047 27.3004 20.5697 27.1843 21.1283 27.2504C21.5278 27.2969 21.9116 27.4333 22.2509 27.6493C22.5902 27.8653 22.8762 28.1553 23.0874 28.4976C23.2835 28.8182 23.4085 29.1771 23.4539 29.5502C23.4994 29.9232 23.4642 30.3017 23.3509 30.66C23.2375 31.0183 23.0486 31.3481 22.7969 31.6271C22.5451 31.9061 22.2365 32.1278 21.8917 32.2773C21.4095 32.4817 21.059 32.9107 20.9577 33.4258C20.91 33.6675 20.9231 33.9173 20.996 34.1528C21.0688 34.3882 21.199 34.6018 21.3749 34.7744L24.6598 38.0592C24.7186 38.1181 24.7884 38.1648 24.8653 38.1966C24.9421 38.2285 25.0245 38.2449 25.1077 38.2449C25.1909 38.2449 25.2733 38.2285 25.3502 38.1966C25.4271 38.1648 25.4969 38.1181 25.5557 38.0592L28.9039 34.7119C28.9253 34.688 28.9528 34.6703 28.9834 34.6608C29.0141 34.6513 29.0467 34.6503 29.0779 34.6578C29.1522 34.6739 29.213 34.7271 29.2383 34.798C29.4549 35.3342 29.7881 35.8156 30.2136 36.2072C30.6392 36.5989 31.1465 36.891 31.6989 37.0624C32.2512 37.2338 32.8348 37.2802 33.4073 37.1983C33.9798 37.1164 34.5269 36.9083 35.0091 36.5888C35.4912 36.2694 35.8963 35.8468 36.195 35.3516C36.4937 34.8563 36.6785 34.3009 36.736 33.7254C36.7936 33.1499 36.7225 32.5689 36.5278 32.0243C36.3332 31.4797 36.0198 30.9852 35.6105 30.5766C35.2445 30.2098 34.8078 29.9211 34.327 29.728C34.2892 29.7146 34.2554 29.6919 34.2288 29.6619C34.2022 29.6319 34.1837 29.5956 34.175 29.5565C34.1684 29.5261 34.1699 29.4945 34.1794 29.4648C34.1888 29.4352 34.206 29.4086 34.229 29.3876L37.5747 26.0403ZM9.1718 21.3595C8.8727 21.3624 8.58126 21.4544 8.33472 21.6238C8.08818 21.7932 7.89775 22.0322 7.78775 22.3104C7.62344 22.7131 7.36197 23.069 7.02668 23.3462C6.69139 23.6233 6.2927 23.8132 5.86619 23.8988C5.43968 23.9844 4.99861 23.9631 4.58233 23.8368C4.16605 23.7106 3.7875 23.4832 3.48047 23.175C3.17343 22.8668 2.94745 22.4874 2.82269 22.0707C2.69793 21.654 2.67827 21.2128 2.76546 20.7866C2.85265 20.3604 3.04398 19.9624 3.32238 19.6282C3.60079 19.2939 3.9576 19.0338 4.361 18.8709C4.82882 18.6877 5.17167 18.2815 5.27469 17.79C5.37433 17.3087 5.22402 16.8105 4.87611 16.4643L1.97544 13.5636L4.82122 10.7178C4.84695 10.691 4.87892 10.6709 4.91428 10.6594C4.94964 10.6479 4.98729 10.6454 5.02389 10.652C5.07466 10.6635 5.12183 10.6874 5.16127 10.7214C5.20072 10.7554 5.23125 10.7985 5.2502 10.847C5.50334 11.4308 5.89539 11.9438 6.39219 12.3413C6.88899 12.7389 7.47547 13.0089 8.10052 13.1279C8.72558 13.2469 9.37025 13.2112 9.97837 13.024C10.5865 12.8368 11.1396 12.5037 11.5895 12.0538C12.0394 11.6039 12.3725 11.0508 12.5597 10.4427C12.7469 9.83454 12.7826 9.18987 12.6636 8.56481C12.5446 7.93976 12.2746 7.35328 11.877 6.85648C11.4795 6.35968 10.9665 5.96763 10.3827 5.71449C10.3353 5.69562 10.2932 5.66545 10.2601 5.62659C10.227 5.58774 10.2038 5.54138 10.1927 5.49155C10.1849 5.45287 10.1872 5.41283 10.1994 5.37527C10.2115 5.33771 10.233 5.3039 10.262 5.27707L13.0993 2.43973L15.9983 5.33871C16.342 5.68493 16.8377 5.83524 17.3165 5.73729C17.5608 5.6864 17.7887 5.57566 17.9797 5.41502C18.1707 5.25437 18.3188 5.04884 18.4109 4.81684C18.6259 4.28624 19.0091 3.84086 19.5016 3.54904C19.9942 3.25723 20.5689 3.13511 21.1376 3.20142C21.5371 3.24807 21.9208 3.3845 22.2601 3.60049C22.5994 3.81649 22.8854 4.10645 23.0967 4.44867C23.296 4.77424 23.422 5.13937 23.4658 5.5186C23.5096 5.89784 23.4702 6.28207 23.3504 6.64452C23.2305 7.00698 23.0331 7.33895 22.7718 7.6173C22.5106 7.89566 22.1918 8.11371 21.8376 8.25627C21.3706 8.43867 21.027 8.84484 20.9248 9.33547C20.8234 9.8168 20.9738 10.3167 21.3225 10.6629L24.2232 13.5636L21.3858 16.4009C21.3583 16.4288 21.3244 16.4496 21.287 16.4617C21.2497 16.4737 21.21 16.4767 21.1714 16.4702C21.1215 16.4591 21.0752 16.436 21.0363 16.4028C20.9975 16.3697 20.9673 16.3276 20.9484 16.2802C20.719 15.7544 20.3764 15.2856 19.9451 14.9074C19.5137 14.5291 19.0042 14.2507 18.453 14.0919C17.9017 13.9331 17.3221 13.8979 16.7557 13.9888C16.1892 14.0796 15.6498 14.2943 15.1758 14.6175C14.7018 14.9408 14.305 15.3646 14.0136 15.8587C13.7222 16.3529 13.5434 16.9053 13.4899 17.4765C13.4364 18.0477 13.5096 18.6237 13.7043 19.1633C13.8989 19.703 14.2102 20.1931 14.6159 20.5987C14.9605 20.9449 15.3675 21.2202 15.815 21.4127C15.8635 21.4315 15.9066 21.4619 15.9406 21.5012C15.9746 21.5405 15.9985 21.5875 16.0101 21.6382C16.0177 21.6747 16.0157 21.7126 16.0043 21.7481C15.9929 21.7836 15.9725 21.8155 15.9451 21.8408L13.0993 24.6866L10.2003 21.7885C9.9279 21.5148 9.55795 21.3605 9.1718 21.3595ZM32.9336 29.8099C32.9842 30.0543 33.0948 30.2824 33.2555 30.4735C33.4161 30.6645 33.6219 30.8126 33.8541 30.9043C34.1766 31.0335 34.4688 31.2268 34.7146 31.4726C34.9951 31.7522 35.2087 32.0918 35.3395 32.4657C35.4702 32.8396 35.5146 33.2383 35.4695 33.6318C35.4228 34.0313 35.2863 34.415 35.0703 34.7543C34.8543 35.0935 34.5644 35.3796 34.2222 35.5909C33.8966 35.7904 33.5313 35.9165 33.152 35.9603C32.7726 36.0041 32.3882 35.9647 32.0256 35.8448C31.6631 35.7248 31.331 35.5272 31.0526 35.2658C30.7743 35.0044 30.5562 34.6854 30.4138 34.331C30.3238 34.1012 30.178 33.8974 29.9896 33.7379C29.8012 33.5784 29.5761 33.4682 29.3346 33.4173C28.8533 33.3177 28.3542 33.468 28.0071 33.8159L25.1073 36.7166L22.27 33.8792C22.2409 33.8525 22.2192 33.8187 22.2069 33.7812C22.1946 33.7436 22.1922 33.7035 22.1999 33.6648C22.2111 33.6148 22.2343 33.5684 22.2676 33.5296C22.3009 33.4907 22.3431 33.4606 22.3907 33.4418C22.9168 33.2125 23.3858 32.87 23.7643 32.4387C24.1428 32.0073 24.4214 31.4978 24.5803 30.9464C24.7392 30.395 24.7745 29.8153 24.6837 29.2487C24.5928 28.682 24.3781 28.1424 24.0547 27.6684C23.7314 27.1943 23.3074 26.7974 22.813 26.506C22.3187 26.2146 21.7661 26.0358 21.1947 25.9825C20.6234 25.9292 20.0473 26.0026 19.5075 26.1976C18.9678 26.3925 18.4777 26.7041 18.0722 27.1102C17.726 27.4539 17.4507 27.8617 17.2582 28.3093C17.2392 28.3579 17.2085 28.4011 17.1689 28.4351C17.1293 28.4691 17.082 28.4929 17.031 28.5044C16.9944 28.5114 16.9567 28.5091 16.9212 28.4975C16.8858 28.486 16.8538 28.4657 16.8284 28.4385L13.9826 25.5927L16.8402 22.736C17.1949 22.3889 17.3502 21.8856 17.2531 21.3984C17.2028 21.1444 17.0909 20.9067 16.9273 20.7061C16.7638 20.5054 16.5535 20.3479 16.315 20.2474C15.7998 20.023 15.3702 19.6392 15.0894 19.1525C14.8087 18.6658 14.6915 18.1018 14.7553 17.5435C14.8019 17.1439 14.9385 16.7601 15.1546 16.4208C15.3708 16.0815 15.6609 15.7955 16.0034 15.5844C16.411 15.3345 16.8791 15.2009 17.3572 15.1979C17.8352 15.195 18.305 15.3227 18.7157 15.5675C19.1893 15.8498 19.5631 16.2737 19.7831 16.7792C19.9874 17.2606 20.4164 17.611 20.9315 17.7132C21.1733 17.7617 21.4233 17.7489 21.6589 17.6761C21.8944 17.6032 22.108 17.4726 22.2801 17.296L25.1073 14.4688L27.9531 17.3146C27.9805 17.3399 28.0009 17.3719 28.0123 17.4074C28.0237 17.4429 28.0257 17.4808 28.0181 17.5173C28.0067 17.568 27.983 17.6151 27.9491 17.6546C27.9153 17.694 27.8723 17.7246 27.8239 17.7436C27.0582 18.0744 26.4193 18.6429 26.0018 19.365C25.5844 20.0871 25.4105 20.9244 25.5059 21.753C25.573 22.3418 25.7725 22.9077 26.0894 23.4085C26.4063 23.9092 26.8324 24.3317 27.3358 24.6444C27.8114 24.9379 28.3447 25.1257 28.8993 25.1949C29.4539 25.2641 30.0169 25.2131 30.5501 25.0455C31.0833 24.8778 31.5742 24.5974 31.9894 24.2232C32.4046 23.849 32.7344 23.3899 32.9564 22.877C32.9752 22.8296 33.0053 22.7876 33.044 22.7545C33.0827 22.7214 33.1288 22.6982 33.1785 22.687C33.2172 22.6798 33.2571 22.6823 33.2945 22.6944C33.332 22.7065 33.3658 22.7277 33.393 22.7562L36.2303 25.5936L33.3322 28.4925C33.162 28.662 33.0365 28.8711 32.967 29.101C32.8974 29.3309 32.886 29.5745 32.9336 29.8099Z" fill="white"/>
</svg>
