<svg width="253" height="135" viewBox="0 0 253 135" fill="none" xmlns="http://www.w3.org/2000/svg">
<g filter="url(#filter0_d_5_134)">
<path d="M58.2695 62.998H64.3415V65H56.0035V50.172H58.2695V62.998ZM68.8398 63.108H75.1318V65H66.5738V50.172H75.0218V52.064H68.8398V56.64H74.3178V58.532H68.8398V63.108ZM86.7846 50.172V52.064H82.8906V65H80.6246V52.064H76.7526V50.172H86.7846ZM87.6426 54.88L89.5786 49.71H92.1526L89.4026 54.88H87.6426ZM101.416 50.766V53.01C100.433 52.394 99.3184 52.086 98.0718 52.086C97.2651 52.086 96.6271 52.2693 96.1578 52.636C95.7031 52.988 95.4758 53.4573 95.4758 54.044C95.4758 54.6307 95.7031 55.1 96.1578 55.452C96.6124 55.804 97.3091 56.1853 98.2478 56.596C98.8638 56.86 99.3404 57.0873 99.6778 57.278C100.03 57.4687 100.426 57.74 100.866 58.092C101.32 58.4293 101.65 58.84 101.856 59.324C102.076 59.7933 102.186 60.336 102.186 60.952C102.186 62.2573 101.724 63.284 100.8 64.032C99.8758 64.78 98.6804 65.154 97.2138 65.154C95.5858 65.154 94.2364 64.8387 93.1658 64.208V61.854C94.3244 62.7193 95.6664 63.152 97.1918 63.152C97.9984 63.152 98.6364 62.9687 99.1058 62.602C99.5751 62.2207 99.8098 61.7 99.8098 61.04C99.8098 60.644 99.6704 60.2847 99.3918 59.962C99.1131 59.6247 98.8124 59.3753 98.4898 59.214C98.1671 59.038 97.6831 58.8033 97.0378 58.51C96.6564 58.334 96.3851 58.2093 96.2238 58.136C96.0771 58.0627 95.8278 57.9307 95.4758 57.74C95.1238 57.5493 94.8598 57.388 94.6838 57.256C94.5224 57.124 94.3171 56.9407 94.0678 56.706C93.8184 56.4713 93.6351 56.2367 93.5178 56.002C93.4151 55.7673 93.3124 55.496 93.2098 55.188C93.1218 54.8653 93.0778 54.5207 93.0778 54.154C93.0778 52.8927 93.5324 51.8953 94.4418 51.162C95.3658 50.4287 96.5538 50.062 98.0058 50.062C99.3404 50.062 100.477 50.2967 101.416 50.766ZM118.302 50.766V53.01C117.32 52.394 116.205 52.086 114.958 52.086C114.152 52.086 113.514 52.2693 113.044 52.636C112.59 52.988 112.362 53.4573 112.362 54.044C112.362 54.6307 112.59 55.1 113.044 55.452C113.499 55.804 114.196 56.1853 115.134 56.596C115.75 56.86 116.227 57.0873 116.564 57.278C116.916 57.4687 117.312 57.74 117.752 58.092C118.207 58.4293 118.537 58.84 118.742 59.324C118.962 59.7933 119.072 60.336 119.072 60.952C119.072 62.2573 118.61 63.284 117.686 64.032C116.762 64.78 115.567 65.154 114.1 65.154C112.472 65.154 111.123 64.8387 110.052 64.208V61.854C111.211 62.7193 112.553 63.152 114.078 63.152C114.885 63.152 115.523 62.9687 115.992 62.602C116.462 62.2207 116.696 61.7 116.696 61.04C116.696 60.644 116.557 60.2847 116.278 59.962C116 59.6247 115.699 59.3753 115.376 59.214C115.054 59.038 114.57 58.8033 113.924 58.51C113.543 58.334 113.272 58.2093 113.11 58.136C112.964 58.0627 112.714 57.9307 112.362 57.74C112.01 57.5493 111.746 57.388 111.57 57.256C111.409 57.124 111.204 56.9407 110.954 56.706C110.705 56.4713 110.522 56.2367 110.404 56.002C110.302 55.7673 110.199 55.496 110.096 55.188C110.008 54.8653 109.964 54.5207 109.964 54.154C109.964 52.8927 110.419 51.8953 111.328 51.162C112.252 50.4287 113.44 50.062 114.892 50.062C116.227 50.062 117.364 50.2967 118.302 50.766ZM130.677 50.172V52.064H126.783V65H124.517V52.064H120.645V50.172H130.677ZM136.045 59.478H140.797L140.555 58.73C139.998 56.9993 139.543 55.5693 139.191 54.44C138.839 53.296 138.626 52.5847 138.553 52.306L138.443 51.888C138.282 52.5773 137.563 54.858 136.287 58.73L136.045 59.478ZM142.579 65L141.413 61.37H135.429L134.241 65H131.843L136.969 50.172H139.939L144.999 65H142.579ZM149.557 52.064V57.476H151.603C152.541 57.476 153.253 57.234 153.737 56.75C154.221 56.2513 154.463 55.5913 154.463 54.77C154.463 52.966 153.473 52.064 151.493 52.064H149.557ZM154.991 65L151.515 59.368H149.557V65H147.291V50.172H151.427C153.128 50.172 154.441 50.59 155.365 51.426C156.289 52.2473 156.751 53.3693 156.751 54.792C156.736 55.8333 156.472 56.7207 155.959 57.454C155.445 58.1727 154.734 58.6933 153.825 59.016L157.697 65H154.991ZM168.704 50.172V52.064H164.81V65H162.544V52.064H158.672V50.172H168.704ZM174.603 66.54H196.603V44.54H174.603V66.54Z" fill="#FEFAF5"/>
</g>
<defs>
<filter id="filter0_d_5_134" x="0.00345993" y="0.540039" width="252.599" height="134" filterUnits="userSpaceOnUse" color-interpolation-filters="sRGB">
<feFlood flood-opacity="0" result="BackgroundImageFix"/>
<feColorMatrix in="SourceAlpha" type="matrix" values="0 0 0 0 0 0 0 0 0 0 0 0 0 0 0 0 0 0 127 0" result="hardAlpha"/>
<feOffset dy="12"/>
<feGaussianBlur stdDeviation="28"/>
<feComposite in2="hardAlpha" operator="out"/>
<feColorMatrix type="matrix" values="0 0 0 0 0 0 0 0 0 0 0 0 0 0 0 0 0 0 0.25 0"/>
<feBlend mode="normal" in2="BackgroundImageFix" result="effect1_dropShadow_5_134"/>
<feBlend mode="normal" in="SourceGraphic" in2="effect1_dropShadow_5_134" result="shape"/>
</filter>
</defs>
</svg>
