<svg width="24" height="22" viewBox="0 0 24 22" fill="none" xmlns="http://www.w3.org/2000/svg">
<path d="M8.64 15.5659C8.64 15.5659 7.5 11.9659 9.59 9.79589C10.4797 9.05565 11.457 8.42761 12.5 7.92589C12.4986 7.01568 12.7571 6.12399 13.2451 5.35566C13.7331 4.58734 14.4304 3.97432 15.2549 3.58869C16.0794 3.20307 16.9968 3.06086 17.8993 3.1788C18.8019 3.29673 19.652 3.66991 20.3497 4.25445C21.0474 4.83899 21.5637 5.61058 21.8379 6.47851C22.1121 7.34644 22.1328 8.27461 21.8976 9.1539C21.6623 10.0332 21.1809 10.827 20.51 11.4421C19.839 12.0571 19.0064 12.4678 18.11 12.6259C16.28 15.3959 12.28 20.3359 6.78 20.3359C3.86 20.3359 1 11.7959 1 7.92589V3.27589C1.00174 2.69845 1.22444 2.14358 1.6224 1.72517C2.02036 1.30676 2.56337 1.05655 3.14 1.02589C4.87 0.93589 7.14 1.02589 7.68 2.19589C8.5 3.90589 6.73 6.97589 4.82 6.97589C4.82 8.47589 6.65 11.7359 8.31 13.5359" stroke="white" stroke-width="2" stroke-miterlimit="10"/>
</svg>
