<svg width="32" height="33" viewBox="0 0 32 33" fill="none" xmlns="http://www.w3.org/2000/svg">
<circle cx="16" cy="16.5" r="16" fill="#DB3512"/>
<path d="M14.64 22.5659C14.64 22.5659 13.5 18.9659 15.59 16.7959C16.4797 16.0557 17.457 15.4276 18.5 14.9259C18.4986 14.0157 18.7571 13.124 19.2451 12.3557C19.7331 11.5873 20.4304 10.9743 21.2549 10.5887C22.0794 10.2031 22.9968 10.0609 23.8993 10.1788C24.8019 10.2967 25.652 10.6699 26.3497 11.2544C27.0474 11.839 27.5637 12.6106 27.8379 13.4785C28.1121 14.3464 28.1328 15.2746 27.8976 16.1539C27.6623 17.0332 27.1809 17.827 26.51 18.4421C25.839 19.0571 25.0064 19.4678 24.11 19.6259C22.28 22.3959 18.28 27.3359 12.78 27.3359C9.86 27.3359 7 18.7959 7 14.9259V10.2759C7.00174 9.69845 7.22444 9.14358 7.6224 8.72517C8.02036 8.30676 8.56337 8.05655 9.14 8.02589C10.87 7.93589 13.14 8.02589 13.68 9.19589C14.5 10.9059 12.73 13.9759 10.82 13.9759C10.82 15.4759 12.65 18.7359 14.31 20.5359" stroke="white" stroke-width="2" stroke-miterlimit="10"/>
</svg>
