<svg width="32" height="33" viewBox="0 0 32 33" fill="none" xmlns="http://www.w3.org/2000/svg">
<circle cx="16" cy="16.5" r="16" fill="#DB3512"/>
<path d="M25.19 17.16C25.4269 17.6955 25.5495 18.2745 25.55 18.86C25.55 20.0005 25.097 21.0942 24.2906 21.9006C23.4841 22.707 22.3904 23.16 21.25 23.16H10.75C10.1849 23.1614 9.62519 23.051 9.1029 22.8354C8.5806 22.6198 8.10605 22.3031 7.70649 21.9035C7.30694 21.504 6.99025 21.0294 6.77463 20.5071C6.559 19.9848 6.44867 19.4251 6.44999 18.86C6.45047 18.2745 6.57308 17.6955 6.80999 17.16" stroke="white" stroke-width="2" stroke-miterlimit="10"/>
<path d="M13.14 16.61C10.42 16.85 8.14 17.32 6.81 17.16C6 17.08 5.5 16.75 5.5 16C5.5 14 8.73 11.06 13.14 10.11" stroke="white" stroke-width="2" stroke-miterlimit="10"/>
<path d="M18.86 10.11C23.27 11.06 26.5 14 26.5 16C26.5 16.75 26.02 17.08 25.19 17.16C23.86 17.32 21.58 16.85 18.86 16.61" stroke="white" stroke-width="2" stroke-miterlimit="10"/>
<path d="M14 8.84002H18C18.2201 8.84002 18.4313 8.92747 18.5869 9.08312C18.7426 9.23878 18.83 9.44989 18.83 9.67002V23.16H13.14V9.67002C13.1399 9.55845 13.1624 9.44801 13.2059 9.34531C13.2495 9.2426 13.3133 9.14973 13.3936 9.07225C13.4739 8.99478 13.569 8.93428 13.6732 8.89438C13.7774 8.85447 13.8885 8.83599 14 8.84002Z" stroke="white" stroke-width="2" stroke-miterlimit="10"/>
<path d="M22.68 14.57V11.7" stroke="white" stroke-width="2" stroke-miterlimit="10"/>
<path d="M9.32001 14.57V11.7" stroke="white" stroke-width="2" stroke-miterlimit="10"/>
</svg>
