<svg width="32" height="33" viewBox="0 0 32 33" fill="none" xmlns="http://www.w3.org/2000/svg">
<circle cx="16" cy="16.5" r="16" fill="#DB3512"/>
<g clip-path="url(#clip0_17_1448)">
<path d="M7.12625 16.125H23.8738C23.8738 17.9003 23.1685 19.6029 21.9132 20.8582C20.6579 22.1135 18.9553 22.8187 17.18 22.8187H13.8288C12.949 22.8199 12.0776 22.6476 11.2645 22.3117C10.4513 21.9759 9.7124 21.483 9.0899 20.8613C8.4674 20.2396 7.97356 19.5013 7.63662 18.6886C7.29968 17.8759 7.12625 17.0048 7.12625 16.125Z" stroke="white" stroke-width="1.75" stroke-miterlimit="10"/>
<path d="M6.295 22.8363H24.67C24.6701 23.7176 24.323 24.5634 23.704 25.1907C23.0849 25.8179 22.2437 26.176 21.3625 26.1876H9.63751C8.7487 26.1876 7.89629 25.8345 7.26781 25.206C6.63933 24.5775 6.28625 23.7251 6.28625 22.8363H6.295Z" stroke="white" stroke-width="1.75" stroke-miterlimit="10"/>
<path d="M11.3175 6.9375C11.3175 7.90875 10.4425 7.90875 10.4425 8.88875C10.4425 9.86875 11.3175 9.86875 11.3175 10.84C11.3175 11.8113 10.4425 11.82 10.4425 12.8" stroke="white" stroke-width="1.75" stroke-miterlimit="10"/>
<path d="M16.375 7.77747C16.375 8.74872 15.5 8.74872 15.5 9.72872C15.5 10.7087 16.375 10.7 16.375 11.68C16.375 12.66 15.5 12.625 15.5 13.6312" stroke="white" stroke-width="1.75" stroke-miterlimit="10"/>
<path d="M21.3625 6.9375C21.3625 7.90875 20.4875 7.90875 20.4875 8.88875C20.4875 9.86875 21.3625 9.86875 21.3625 10.84C21.3625 11.8113 20.4875 11.82 20.4875 12.8" stroke="white" stroke-width="1.75" stroke-miterlimit="10"/>
</g>
<defs>
<clipPath id="clip0_17_1448">
<rect width="21" height="21" fill="white" transform="translate(5 6.5)"/>
</clipPath>
</defs>
</svg>
