<svg width="32" height="33" viewBox="0 0 32 33" fill="none" xmlns="http://www.w3.org/2000/svg">
<circle cx="16" cy="16.5" r="16" fill="#DB3512"/>
<g clip-path="url(#clip0_17_1475)">
<path d="M19.5017 20.6217H12.4983H6.375V8.375H25.625V20.6217H23.0033" stroke="white" stroke-width="1.83333" stroke-miterlimit="10"/>
<path d="M13.3784 17.1291H16.44C16.7885 17.1267 17.1219 16.9865 17.3675 16.7392C17.6131 16.492 17.7509 16.1576 17.7509 15.8091C17.7509 15.4614 17.6128 15.128 17.3669 14.8822C17.1211 14.6364 16.7877 14.4983 16.44 14.4983H15.5234C15.1757 14.4983 14.8423 14.3601 14.5965 14.1143C14.3506 13.8685 14.2125 13.5351 14.2125 13.1874C14.2125 12.8398 14.3506 12.5063 14.5965 12.2605C14.8423 12.0147 15.1757 11.8766 15.5234 11.8766H18.585" stroke="white" stroke-width="1.83333" stroke-miterlimit="10"/>
<path d="M16 10.1259V11.8767" stroke="white" stroke-width="1.83333" stroke-miterlimit="10"/>
<path d="M16 17.1292V18.8708" stroke="white" stroke-width="1.83333" stroke-miterlimit="10"/>
<path d="M21.2525 27.625C22.3734 26.5043 23.0032 24.9842 23.0033 23.3992V19.7325C22.9985 19.2714 22.8119 18.8307 22.4841 18.5063C22.1563 18.1819 21.7137 18 21.2525 18C21.0222 17.9988 20.794 18.0433 20.581 18.1308C20.3681 18.2184 20.1746 18.3473 20.0118 18.5101C19.8489 18.6729 19.72 18.8664 19.6325 19.0794C19.5449 19.2924 19.5004 19.5206 19.5017 19.7509V22.3725L19.3183 22.4642C18.8473 22.7005 18.4513 23.0631 18.1745 23.5115C17.8977 23.9599 17.751 24.4764 17.7508 25.0034" stroke="white" stroke-width="1.83333" stroke-miterlimit="10"/>
<path d="M12.4983 20.6217V23.3717C12.4985 24.9568 13.1283 26.4768 14.2492 27.5975" stroke="white" stroke-width="1.83333" stroke-miterlimit="10"/>
</g>
<defs>
<clipPath id="clip0_17_1475">
<rect width="22" height="22" fill="white" transform="translate(5 7)"/>
</clipPath>
</defs>
</svg>
