<svg width="33" height="33" viewBox="0 0 33 33" fill="none" xmlns="http://www.w3.org/2000/svg">
<g clip-path="url(#clip0_320_402)">
<path d="M18.3045 28.6596L4.71108 22.0846L11.2904 8.48223L18.8502 5.85148L22.253 7.49739L24.8838 15.0572L18.3045 28.6596Z" stroke="#DB3512" stroke-width="2" stroke-miterlimit="10"/>
<path d="M18.0635 9.65894L19.7559 10.4775" stroke="#DB3512" stroke-width="2" stroke-miterlimit="10"/>
<path d="M19.4029 15.5496L10.6065 20.737" stroke="#DB3512" stroke-width="2" stroke-miterlimit="10"/>
<path d="M13.0607 14.5819C13.2944 14.6949 13.5754 14.5971 13.6884 14.3634C13.8015 14.1297 13.7037 13.8487 13.47 13.7357C13.2363 13.6226 12.9552 13.7204 12.8422 13.9541C12.7292 14.1878 12.827 14.4688 13.0607 14.5819Z" stroke="#DB3512" stroke-width="2" stroke-miterlimit="10"/>
<path d="M16.5333 22.5599C16.767 22.6729 17.0481 22.5751 17.1611 22.3414C17.2741 22.1078 17.1763 21.8267 16.9426 21.7137C16.709 21.6007 16.4279 21.6985 16.3149 21.9321C16.2019 22.1658 16.2997 22.4469 16.5333 22.5599Z" stroke="#DB3512" stroke-width="2" stroke-miterlimit="10"/>
</g>
<defs>
<clipPath id="clip0_320_402">
<rect width="24" height="24" fill="white" transform="translate(10.4502) rotate(25.8124)"/>
</clipPath>
</defs>
</svg>
