<svg width="32" height="32" viewBox="0 0 32 32" fill="none" xmlns="http://www.w3.org/2000/svg">
<circle cx="16" cy="16" r="16" fill="#DB3512"/>
<g clip-path="url(#clip0_362_430)">
<path d="M21.9094 14.6474C22.0684 14.8082 22.2275 15.0837 22.3184 15.3823C22.3866 15.6119 22.5684 15.7726 22.7957 15.8186C23.023 15.8645 23.2503 15.7956 23.4094 15.6349L25.5003 13.5223C25.6139 13.4074 25.6139 13.2237 25.5003 13.1089L23.4094 10.9963C23.4094 10.9734 23.3866 10.9504 23.3866 10.9274C23.3866 10.9045 23.4094 10.9045 23.4321 10.8815C23.7957 10.7667 24.1594 10.5371 24.3866 10.3304C24.9321 9.7793 24.9321 8.88375 24.3866 8.33263C23.8412 7.78152 22.9548 7.78152 22.4094 8.33263C22.1821 8.56226 21.9775 8.92967 21.8639 9.29708C21.8639 9.32004 21.8412 9.343 21.8184 9.343H21.773L19.6594 7.20745C19.5457 7.09263 19.3639 7.09263 19.2503 7.20745L17.1594 9.32004C17.1366 9.343 17.1139 9.343 17.0912 9.343C17.0684 9.343 17.0457 9.32004 17.0457 9.29708C16.9321 8.92967 16.7048 8.56226 16.5003 8.33263C15.9548 7.78152 15.0684 7.78152 14.523 8.33263C13.9775 8.88375 13.9775 9.7793 14.523 10.3304C15.0684 10.8815 15.1139 10.7667 15.4775 10.8815C15.5003 10.8815 15.523 10.9045 15.523 10.9274C15.523 10.9504 15.523 10.9734 15.5003 10.9963L13.4094 13.1089L11.273 15.2215C11.2503 15.2445 11.2275 15.2445 11.2048 15.2445C11.1821 15.2445 11.1594 15.2215 11.1594 15.1986C11.0457 14.8312 10.8184 14.4637 10.6139 14.2341C10.0684 13.683 9.18208 13.683 8.63663 14.2341C8.09118 14.7852 8.09118 15.6808 8.63663 16.2319C8.8639 16.4615 9.22754 16.6682 9.59118 16.783C9.6139 16.783 9.63663 16.806 9.63663 16.8289C9.63663 16.8519 9.63663 16.8749 9.6139 16.8978L7.50027 19.0334C7.38663 19.1482 7.38663 19.3319 7.50027 19.4467L9.59118 21.5593C9.59118 21.5823 9.6139 21.6052 9.6139 21.6282C9.6139 21.6512 9.59118 21.6512 9.56845 21.6741C9.20481 21.7889 8.84118 22.0186 8.6139 22.2482C8.06845 22.7993 8.06845 23.6949 8.6139 24.246C8.88663 24.5215 9.25027 24.6593 9.6139 24.6593C9.97754 24.6593 10.3412 24.5215 10.6139 24.246C10.8412 24.0163 11.0457 23.6489 11.1594 23.2815C11.1594 23.2586 11.1821 23.2356 11.2503 23.2356L13.3639 25.3712C13.4321 25.44 13.5003 25.463 13.5684 25.463C13.6366 25.463 13.7275 25.44 13.773 25.3712L15.8639 23.2586C16.023 23.0978 16.0912 22.8682 16.0457 22.6386C16.0003 22.4089 15.8412 22.2252 15.6139 22.1563C15.3184 22.0645 15.0457 21.9037 14.8866 21.743C14.5684 21.4215 14.5684 20.8934 14.8866 20.5719C15.2048 20.2504 15.7275 20.2504 16.0457 20.5719C16.2048 20.7326 16.3639 21.0082 16.4548 21.3067C16.523 21.5363 16.7048 21.6971 16.9321 21.743C17.1594 21.7889 17.3866 21.72 17.5457 21.5593L21.7275 17.3341C21.8866 17.1734 21.9548 16.9437 21.9094 16.7141C21.8639 16.4845 21.7048 16.3008 21.4775 16.2319C21.1821 16.14 20.9094 15.9793 20.7503 15.8186C20.4321 15.4971 20.4321 14.9689 20.7503 14.6474C21.0684 14.326 21.5912 14.326 21.9094 14.6474ZM17.1139 21.146C17.0912 21.1689 17.0684 21.1689 17.0457 21.1689C17.023 21.1689 17.0003 21.146 17.0003 21.123C16.8866 20.7556 16.6594 20.3882 16.4548 20.1586C15.9094 19.6074 15.023 19.6074 14.4775 20.1586C13.9321 20.7097 13.9321 21.6052 14.4775 22.1563C15.023 22.7074 15.0684 22.5926 15.4321 22.7074C15.4548 22.7074 15.4775 22.7304 15.4775 22.7534C15.4775 22.7763 15.4775 22.7993 15.4548 22.8223L13.5684 24.7282L11.6139 22.7534C11.6139 22.7534 11.5912 22.7534 11.5912 22.7304H11.5684C11.5457 22.7074 11.5457 22.6845 11.523 22.6845C11.3639 22.5926 11.1821 22.5926 11.0003 22.6386C10.7957 22.7074 10.6594 22.8682 10.5912 23.0519C10.5003 23.3504 10.3412 23.626 10.1821 23.7867C9.8639 24.1082 9.34118 24.1082 9.02299 23.7867C8.70481 23.4652 8.70481 22.9371 9.02299 22.6156C9.18208 22.4549 9.45481 22.2941 9.75027 22.2023C9.95481 22.1334 10.0912 21.9956 10.1594 21.7889C10.2275 21.6052 10.2048 21.4215 10.1139 21.2608C10.1139 21.2378 10.0912 21.2378 10.0912 21.2149C10.0912 21.2149 10.0684 21.2149 10.0684 21.1919C10.0684 21.1919 10.0684 21.1689 10.0457 21.1689L8.09118 19.1941L9.97754 17.2882C10.1366 17.1274 10.2048 16.8978 10.1594 16.6682C10.1139 16.4386 9.95481 16.2549 9.72754 16.186C9.43208 16.0941 9.15936 15.9334 9.00027 15.7726C8.68208 15.4512 8.68208 14.923 9.00027 14.6015C9.31845 14.28 9.84118 14.28 10.1594 14.6015C10.3184 14.7623 10.4775 15.0378 10.5684 15.3363C10.6366 15.566 10.8184 15.7267 11.0457 15.7726C11.273 15.8186 11.5003 15.7497 11.6594 15.5889L13.5457 13.683L15.5003 15.6578C15.5003 15.6578 15.523 15.6578 15.523 15.6808H15.5457C15.5684 15.7037 15.5684 15.7267 15.5912 15.7267C15.7503 15.8186 15.9321 15.8186 16.1139 15.7726C16.3184 15.7037 16.4548 15.543 16.523 15.3593C16.6139 15.0608 16.773 14.7852 16.9321 14.6245C17.2503 14.303 17.773 14.303 18.0912 14.6245C18.4094 14.946 18.4094 15.4741 18.0912 15.7956C17.9321 15.9563 17.6594 16.1171 17.3639 16.2089C17.1594 16.2778 17.023 16.4156 16.9548 16.6223C16.8866 16.806 16.9094 16.9897 17.0003 17.1504C17.0003 17.1734 17.023 17.1734 17.023 17.1963C17.023 17.1963 17.0457 17.1963 17.0457 17.2193C17.0457 17.2193 17.0457 17.2423 17.0684 17.2423L19.023 19.2171L17.1139 21.146ZM20.3412 16.2319C20.5684 16.4615 20.9321 16.6682 21.2957 16.783C21.3184 16.783 21.3412 16.806 21.3412 16.8289C21.3412 16.8519 21.3412 16.8749 21.3184 16.8978L19.4321 18.8037L17.5457 16.8978C17.5457 16.8749 17.523 16.8519 17.523 16.8289C17.523 16.806 17.5457 16.806 17.5684 16.783C17.9321 16.6682 18.2957 16.4386 18.523 16.2319C19.0684 15.6808 19.0684 14.7852 18.523 14.2341C17.9775 13.683 17.0912 13.683 16.5457 14.2341C16.0003 14.7852 16.1139 14.8312 16.0003 15.1986C16.0003 15.2215 15.9775 15.2445 15.9548 15.2445H15.9094L14.0003 13.3156L15.8866 11.4097C16.0457 11.2489 16.1139 11.0193 16.0684 10.7897C16.023 10.56 15.8639 10.3763 15.6366 10.3074C15.3412 10.2156 15.0684 10.0549 14.9094 9.89412C14.5912 9.57263 14.5912 9.04449 14.9094 8.723C15.2275 8.40152 15.7503 8.40152 16.0684 8.723C16.2275 8.88375 16.3866 9.1593 16.4775 9.45782C16.5457 9.68745 16.7275 9.84819 16.9548 9.89412C17.1821 9.94004 17.4094 9.87115 17.5684 9.71041L19.4548 7.80449L21.4094 9.7793C21.4094 9.7793 21.4321 9.7793 21.4321 9.80226H21.4548C21.4775 9.82523 21.4775 9.84819 21.5003 9.84819C21.6594 9.94004 21.8412 9.94004 22.023 9.89412C22.2275 9.82523 22.3639 9.66449 22.4321 9.48078C22.523 9.18226 22.6821 8.90671 22.8412 8.74597C23.1594 8.42449 23.6821 8.42449 24.0003 8.74597C24.3184 9.06745 24.3184 9.5956 24.0003 9.91708C23.8412 10.0778 23.5684 10.2386 23.273 10.3304C23.0684 10.3993 22.9321 10.5371 22.8639 10.7437C22.7957 10.9274 22.8184 11.1112 22.9094 11.2719C22.9094 11.2949 22.9321 11.2949 22.9321 11.3178C22.9321 11.3178 22.9548 11.3178 22.9548 11.3408C22.9548 11.3408 22.9548 11.3637 22.9775 11.3637L24.9321 13.3386L23.0457 15.2445C23.023 15.2674 23.0003 15.2674 22.9775 15.2674C22.9548 15.2674 22.9321 15.2445 22.9321 15.2215C22.8184 14.8541 22.5912 14.4867 22.3866 14.2571C21.8412 13.706 20.9548 13.706 20.4094 14.2571C19.7957 14.7852 19.7957 15.6808 20.3412 16.2319Z" fill="white" stroke="white" stroke-width="0.2" stroke-miterlimit="10"/>
</g>
<defs>
<clipPath id="clip0_362_430">
<rect width="24" height="24" fill="white" transform="translate(4 3.5)"/>
</clipPath>
</defs>
</svg>
