<svg width="33" height="32" viewBox="0 0 33 32" fill="none" xmlns="http://www.w3.org/2000/svg">
<circle cx="16.5" cy="16" r="16" fill="#DB3512"/>
<g clip-path="url(#clip0_196_984)">
<path d="M21.0048 10.1549H10.9861C9.14004 10.1549 7.64355 11.6514 7.64355 13.4974V21.8449C7.64355 23.6909 9.14004 25.1874 10.9861 25.1874H21.0048C22.8508 25.1874 24.3473 23.6909 24.3473 21.8449V13.4974C24.3473 11.6514 22.8508 10.1549 21.0048 10.1549Z" stroke="white" stroke-width="1.75" stroke-miterlimit="10"/>
<path d="M21.8453 6.8125H10.1553V10.155H21.8453V6.8125Z" stroke="white" stroke-width="1.75" stroke-miterlimit="10"/>
<path d="M16.2802 14.3287L15.1602 17.6712H16.8402L15.7202 21.0137" stroke="white" stroke-width="1.75" stroke-miterlimit="10"/>
<path d="M16.0001 22.6851C18.7691 22.6851 21.0138 20.4404 21.0138 17.6713C21.0138 14.9023 18.7691 12.6576 16.0001 12.6576C13.2311 12.6576 10.9863 14.9023 10.9863 17.6713C10.9863 20.4404 13.2311 22.6851 16.0001 22.6851Z" stroke="white" stroke-width="1.75" stroke-miterlimit="10"/>
<path d="M19.7275 14.3287H24.3563V21.0137H19.7275" stroke="white" stroke-width="1.75" stroke-miterlimit="10"/>
<path d="M12.2723 21.0137H7.65234V14.3287H12.2723" stroke="white" stroke-width="1.75" stroke-miterlimit="10"/>
</g>
<defs>
<clipPath id="clip0_196_984">
<rect width="21" height="21" fill="white" transform="translate(5.5 5.5)"/>
</clipPath>
</defs>
</svg>
