<svg width="32" height="32" viewBox="0 0 32 32" fill="none" xmlns="http://www.w3.org/2000/svg">
<circle cx="16" cy="16" r="16" fill="#DB3512"/>
<path d="M6.45801 24.75H25.5413" stroke="white" stroke-width="1.66667" stroke-miterlimit="10"/>
<path d="M16.0005 17.5917C17.689 17.5917 19.3084 18.2624 20.5024 19.4564C21.6964 20.6504 22.3671 22.2698 22.3671 23.9583V24.7917H9.63379V23.9583C9.63379 22.2698 10.3046 20.6504 11.4985 19.4564C12.6925 18.2624 14.3119 17.5917 16.0005 17.5917Z" stroke="white" stroke-width="1.66667" stroke-miterlimit="10"/>
<path d="M15.9997 16C16.4369 16 16.7913 15.6455 16.7913 15.2083C16.7913 14.7711 16.4369 14.4166 15.9997 14.4166C15.5624 14.4166 15.208 14.7711 15.208 15.2083C15.208 15.6455 15.5624 16 15.9997 16Z" stroke="white" stroke-width="1.66667" stroke-miterlimit="10"/>
<path d="M9.63379 8.84167C12.3921 10.75 8.50046 11.7 11.2255 13.6083" stroke="white" stroke-width="1.66667" stroke-miterlimit="10"/>
<path d="M15.208 7.25C17.958 9.15833 14.0413 10.1167 16.7913 12.025" stroke="white" stroke-width="1.66667" stroke-miterlimit="10"/>
<path d="M20.7754 8.84167C23.5254 10.75 19.6087 11.7083 22.3671 13.6167" stroke="white" stroke-width="1.66667" stroke-miterlimit="10"/>
</svg>
