<svg width="25" height="27" viewBox="0 0 25 27" fill="none" xmlns="http://www.w3.org/2000/svg">
<path d="M15.3045 25.6596L1.71108 19.0846L8.29037 5.48223L15.8502 2.85148L19.253 4.49739L21.8838 12.0572L15.3045 25.6596Z" stroke="#DB3512" stroke-width="2" stroke-miterlimit="10"/>
<path d="M15.0635 6.65894L16.7559 7.47754" stroke="#DB3512" stroke-width="2" stroke-miterlimit="10"/>
<path d="M16.4029 12.5496L7.60649 17.737" stroke="#DB3512" stroke-width="2" stroke-miterlimit="10"/>
<path d="M10.0607 11.5819C10.2944 11.6949 10.5754 11.5971 10.6884 11.3634C10.8015 11.1297 10.7037 10.8487 10.47 10.7357C10.2363 10.6226 9.95525 10.7204 9.84222 10.9541C9.7292 11.1878 9.82701 11.4688 10.0607 11.5819Z" stroke="#DB3512" stroke-width="2" stroke-miterlimit="10"/>
<path d="M13.5333 19.5599C13.767 19.6729 14.0481 19.5751 14.1611 19.3414C14.2741 19.1078 14.1763 18.8267 13.9426 18.7137C13.709 18.6007 13.4279 18.6985 13.3149 18.9321C13.2019 19.1658 13.2997 19.4469 13.5333 19.5599Z" stroke="#DB3512" stroke-width="2" stroke-miterlimit="10"/>
</svg>
