<svg width="32" height="33" viewBox="0 0 32 33" fill="none" xmlns="http://www.w3.org/2000/svg">
<circle cx="16" cy="16.5" r="16" fill="#DB3512"/>
<path d="M11.5627 7.79178L11 6.27107L10.4373 7.79178L9.18258 11.1826L5.79178 12.4373L4.27107 13L5.79178 13.5627L9.18258 14.8174L10.4373 18.2082L11 19.7289L11.5627 18.2082L12.8174 14.8174L16.2082 13.5627L17.7289 13L16.2082 12.4373L12.8174 11.1826L11.5627 7.79178Z" stroke="white" stroke-width="1.2"/>
<path d="M21.5627 14.7918L21 13.2711L20.4373 14.7918L19.1826 18.1826L15.7918 19.4373L14.2711 20L15.7918 20.5627L19.1826 21.8174L20.4373 25.2082L21 26.7289L21.5627 25.2082L22.8174 21.8174L26.2082 20.5627L27.7289 20L26.2082 19.4373L22.8174 18.1826L21.5627 14.7918Z" stroke="white" stroke-width="1.2"/>
</svg>
