<svg width="33" height="32" viewBox="0 0 33 32" fill="none" xmlns="http://www.w3.org/2000/svg">
<circle cx="16.5" cy="16" r="16" fill="#DB3512"/>
<g clip-path="url(#clip0_196_996)">
<path d="M9.36719 24.4714C9.36812 22.7227 9.77695 20.9982 10.5612 19.4352C10.8214 18.8688 11.1046 18.3407 11.3266 17.8125C11.9362 16.7122 12.2697 15.4804 12.2986 14.2229C12.2164 11.7169 11.7198 9.24184 10.8291 6.89807" stroke="white" stroke-width="1.53078" stroke-miterlimit="10"/>
<path d="M24.0096 24.4714C24.0178 22.7532 23.6302 21.0561 22.8768 19.5117C22.6013 18.93 22.3181 18.3866 22.0578 17.8508C21.4456 16.7512 21.1094 15.5193 21.0781 14.2611C21.1542 11.742 21.6509 9.25337 22.5477 6.89807" stroke="white" stroke-width="1.53078" stroke-miterlimit="10"/>
<path d="M22.8767 19.5117L17.9935 23.3386C17.6217 23.6281 17.1635 23.7844 16.6923 23.7825C16.2143 23.7823 15.7503 23.6204 15.3758 23.3233L10.5615 19.4351C10.8218 18.8687 11.105 18.3406 11.3269 17.8125C14.8421 18.7119 18.5272 18.7119 22.0424 17.8125C22.3179 18.3483 22.6011 18.8917 22.8767 19.5117Z" stroke="white" stroke-width="1.53078" stroke-miterlimit="10"/>
<path d="M16.6846 12.7533V14.2228" stroke="white" stroke-width="1.53078" stroke-miterlimit="10"/>
<path d="M8.33398 12.4547L10.102 14.2228L8.33398 15.9908" stroke="white" stroke-width="1.53078" stroke-miterlimit="10"/>
<path d="M25.1733 15.9908L23.4053 14.2228L25.1733 12.4547" stroke="white" stroke-width="1.53078" stroke-miterlimit="10"/>
</g>
<defs>
<clipPath id="clip0_196_996">
<rect width="18.3694" height="18.3694" fill="white" transform="translate(7.5 6.5)"/>
</clipPath>
</defs>
</svg>
