<svg width="32" height="33" viewBox="0 0 32 33" fill="none" xmlns="http://www.w3.org/2000/svg">
<circle cx="16" cy="16.5" r="16" fill="#DB3512"/>
<g clip-path="url(#clip0_196_818)">
<path d="M23.7273 13.9556V12.4445C23.7273 11.1556 22.7019 10.1111 21.4364 10.1111H20.5637V9.55557C20.5637 8.93335 20.0619 8.44446 19.4728 8.44446C18.8837 8.44446 18.3819 8.95557 18.3819 9.55557V10.1111H11.6619V9.55557C11.6619 8.93335 11.16 8.44446 10.571 8.44446C9.98186 8.44446 9.48004 8.95557 9.48004 9.55557V10.1111H8.60732C7.34186 10.1111 6.31641 11.1556 6.31641 12.4445V21.9333C6.31641 23.2222 7.34186 24.2667 8.60732 24.2667H21.48C22.7455 24.2667 23.771 23.2222 23.771 21.9333V13.9556H23.7273ZM18.8837 9.53335C18.8837 9.20001 19.1455 8.95557 19.451 8.95557C19.7564 8.95557 20.0182 9.22224 20.0182 9.53335V11.2C20.0182 11.5333 19.7564 11.7778 19.451 11.7778C19.1455 11.7778 18.8837 11.5111 18.8837 11.2V9.53335ZM10.5273 8.95557C10.8546 8.95557 11.0946 9.22224 11.0946 9.53335V11.2C11.0946 11.5333 10.8328 11.7778 10.5273 11.7778C10.2219 11.7778 9.96004 11.5111 9.96004 11.2V9.53335C9.96004 9.20001 10.2219 8.95557 10.5273 8.95557ZM8.56368 10.6222H9.43641V11.1778C9.43641 11.8 9.93822 12.2889 10.5273 12.2889C11.1164 12.2889 11.6182 11.7778 11.6182 11.1778V10.6222H18.3382V11.1778C18.3382 11.8 18.84 12.2889 19.4291 12.2889C20.0182 12.2889 20.52 11.7778 20.52 11.1778V10.6222H21.3928C22.3746 10.6222 23.16 11.4222 23.16 12.4222V13.6667H6.79641V12.4222C6.79641 11.4222 7.58186 10.6222 8.56368 10.6222ZM21.4364 23.7111H8.56368C7.58186 23.7111 6.79641 22.9111 6.79641 21.9111V14.2H23.2037V21.9111C23.2037 22.9111 22.4182 23.7111 21.4364 23.7111Z" fill="white" stroke="white" stroke-miterlimit="10"/>
</g>
<defs>
<clipPath id="clip0_196_818">
<rect width="21.2551" height="21.2551" fill="white" transform="translate(4 5)"/>
</clipPath>
</defs>
</svg>
