<svg width="33" height="32" viewBox="0 0 33 32" fill="none" xmlns="http://www.w3.org/2000/svg">
<circle cx="16.5" cy="16" r="16" fill="#DB3512"/>
<path d="M14.9086 19.475C17.1039 19.475 18.8836 17.6954 18.8836 15.5C18.8836 13.3047 17.1039 11.525 14.9086 11.525C12.7133 11.525 10.9336 13.3047 10.9336 15.5C10.9336 17.6954 12.7133 19.475 14.9086 19.475Z" stroke="white" stroke-width="1.66667" stroke-miterlimit="10"/>
<path d="M16.0915 6.75C18.4748 6.75 21.6665 6.75 23.4081 9.29167C26.3331 13.55 21.0331 15.8333 23.4081 17.4667C25.7831 19.1 25.6415 22.1083 24.2415 23.1833C21.5081 25.225 18.3248 21.025 14.5331 23.725C11.2498 26.0417 6.34145 20.3167 8.16645 14.025C9.04978 10.7917 12.1081 6.75 16.0915 6.75Z" stroke="white" stroke-width="1.66667" stroke-miterlimit="10"/>
</svg>
