<svg width="32" height="33" viewBox="0 0 32 33" fill="none" xmlns="http://www.w3.org/2000/svg">
<circle cx="16" cy="16.5" r="16" fill="#DB3512"/>
<g clip-path="url(#clip0_196_831)">
<path d="M15.9997 6.59998C12.2469 6.59998 9.19238 9.71109 9.19238 13.5333C9.19238 17.3555 14.8215 24.8889 15.4542 25.7555C15.5851 25.9333 15.7815 26.0444 15.9997 26.0444C16.2178 26.0444 16.4142 25.9333 16.5451 25.7555C17.1778 24.8889 22.8069 17.1111 22.8069 13.5333C22.8069 9.95553 19.7524 6.59998 15.9997 6.59998ZM15.9997 24.1778C14.0797 21.4666 10.5451 15.9333 10.5451 13.5555C10.5451 11.1778 12.9887 7.99998 15.9997 7.99998C19.0106 7.99998 21.4542 10.4889 21.4542 13.5555C21.4542 16.6222 17.9197 21.4666 15.9997 24.1778ZM15.9997 10.0889C14.1233 10.0889 12.596 11.6444 12.596 13.5555C12.596 15.4666 14.1233 17.0222 15.9997 17.0222C17.876 17.0222 19.4033 15.4666 19.4033 13.5555C19.4033 11.6444 17.876 10.0889 15.9997 10.0889ZM15.9997 15.6444C14.8651 15.6444 13.9487 14.7111 13.9487 13.5555C13.9487 12.4 14.8651 11.4666 15.9997 11.4666C17.1342 11.4666 18.0506 12.4 18.0506 13.5555C18.0506 14.7111 17.1342 15.6444 15.9997 15.6444Z" fill="white"/>
</g>
<defs>
<clipPath id="clip0_196_831">
<rect width="21.5" height="21.5" fill="white" transform="translate(5 5)"/>
</clipPath>
</defs>
</svg>
