<svg width="33" height="32" viewBox="0 0 33 32" fill="none" xmlns="http://www.w3.org/2000/svg">
<circle cx="16.5" cy="16" r="16" fill="#DB3512"/>
<g clip-path="url(#clip0_362_432)">
<path d="M11.4839 10.3168C10.3839 10.3168 9.50391 11.1808 9.50391 12.2608V13.0168C9.50391 14.0968 10.3839 14.9608 11.4839 14.9608H12.0119C13.1119 14.9608 13.9919 14.0968 13.9919 13.0168V12.2608C13.9919 11.1808 13.1119 10.3168 12.0119 10.3168H11.4839ZM13.3319 13.0168C13.3319 13.7296 12.7379 14.3128 12.0119 14.3128H11.4839C10.7579 14.3128 10.1639 13.7296 10.1639 13.0168V12.2608C10.1639 11.548 10.7579 10.9648 11.4839 10.9648H12.0119C12.7379 10.9648 13.3319 11.548 13.3319 12.2608V13.0168Z" fill="white"/>
<path d="M21.6482 15.8248C20.4382 15.8248 19.3382 16.3 18.5022 17.1208V16.5592C18.5022 15.6088 17.7102 14.8312 16.7422 14.8312H16.2802C15.3782 14.8312 14.6082 15.5224 14.5202 16.3864C13.7062 15.8032 12.7382 15.4792 11.7042 15.4792C9.21817 15.4792 7.15017 17.4016 6.62217 19.9936C6.49017 20.6416 6.93017 21.2464 7.52417 21.2464H13.1342C13.0902 21.3976 13.0682 21.5488 13.0462 21.7216C13.0022 22.024 13.2222 22.3048 13.4862 22.3048H19.4922C19.7782 22.3048 19.9762 22.024 19.9322 21.7216C19.9102 21.5488 19.8662 21.3976 19.8442 21.2464H25.4542C26.0702 21.2464 26.4882 20.5984 26.3562 19.9504C25.8282 17.596 23.9142 15.8464 21.6262 15.8464L21.6482 15.8248ZM25.6302 20.4688C25.5862 20.5336 25.5202 20.5552 25.4762 20.5552H19.6242C19.2942 19.7992 18.7222 19.1728 18.0402 18.784C18.7662 17.4016 20.1082 16.4512 21.6482 16.4512C23.1882 16.4512 25.2562 17.92 25.7182 20.0368C25.7622 20.2096 25.7182 20.3608 25.6302 20.4472V20.4688ZM19.2722 21.6352H13.7502C14.0142 20.1664 15.1802 19.0648 16.5222 19.0648C17.8642 19.0648 19.0082 20.1664 19.2942 21.6352H19.2722ZM7.37017 20.4688C7.28217 20.3608 7.26017 20.2312 7.28217 20.08C7.74417 17.7688 9.61417 16.1056 11.7042 16.1056C13.7942 16.1056 13.7282 16.516 14.4982 17.2072C14.4982 17.812 14.8062 18.3304 15.2682 18.6544C14.4322 19 13.7502 19.6912 13.3542 20.5768H7.52417C7.45817 20.5768 7.39217 20.5336 7.37017 20.4904V20.4688ZM16.7202 15.4576C17.3362 15.4576 17.8202 15.9328 17.8202 16.5376V17.2072C17.8202 17.812 17.3362 18.2872 16.7202 18.2872H16.2582C15.6422 18.2872 15.1582 17.812 15.1582 17.2072V16.5376C15.1582 15.9328 15.6422 15.4576 16.2582 15.4576H16.7202Z" fill="white"/>
<path d="M21.3179 10.7704C20.2179 10.7704 19.3379 11.6344 19.3379 12.7144V13.4704C19.3379 14.5504 20.2179 15.4144 21.3179 15.4144H21.8459C22.9459 15.4144 23.8259 14.5504 23.8259 13.4704V12.7144C23.8259 11.6344 22.9459 10.7704 21.8459 10.7704H21.3179ZM23.1659 13.4704C23.1659 14.1832 22.5719 14.7664 21.8459 14.7664H21.3179C20.5919 14.7664 19.9979 14.1832 19.9979 13.4704V12.7144C19.9979 12.0016 20.5919 11.4184 21.3179 11.4184H21.8459C22.5719 11.4184 23.1659 12.0016 23.1659 12.7144V13.4704Z" fill="white"/>
</g>
<defs>
<clipPath id="clip0_362_432">
<rect width="20.7207" height="20.7207" fill="white" transform="translate(6.5 5.5)"/>
</clipPath>
</defs>
</svg>
