<svg width="36" height="35" viewBox="0 0 36 35" fill="none" xmlns="http://www.w3.org/2000/svg">
<path d="M18.0785 7.23545C17.9228 7.23545 17.7735 7.17361 17.6634 7.06353C17.5533 6.95346 17.4915 6.80416 17.4915 6.64849V0.93858C17.4915 0.78291 17.5533 0.633615 17.6634 0.523539C17.7735 0.413463 17.9228 0.351624 18.0785 0.351624C18.2341 0.351624 18.3834 0.413463 18.4935 0.523539C18.6036 0.633615 18.6654 0.78291 18.6654 0.93858V6.64849C18.6654 6.80416 18.6036 6.95346 18.4935 7.06353C18.3834 7.17361 18.2341 7.23545 18.0785 7.23545ZM15.1382 7.99145C15.2481 7.8814 15.3098 7.73221 15.3098 7.57667C15.3098 7.42112 15.2481 7.27194 15.1382 7.16188L12.5454 4.56754C12.4917 4.50987 12.4269 4.46361 12.3549 4.43153C12.2829 4.39945 12.2051 4.3822 12.1263 4.38081C12.0475 4.37942 11.9692 4.39392 11.8962 4.42344C11.8231 4.45296 11.7567 4.4969 11.7009 4.55264C11.6452 4.60837 11.6013 4.67477 11.5717 4.74785C11.5422 4.82094 11.5277 4.89922 11.5291 4.97803C11.5305 5.05684 11.5478 5.13457 11.5798 5.20657C11.6119 5.27857 11.6582 5.34337 11.7158 5.3971L14.3086 7.99145C14.4187 8.10137 14.5679 8.16311 14.7234 8.16311C14.879 8.16311 15.0281 8.10137 15.1382 7.99145ZM22.0627 7.99145L24.6555 5.39788C24.7592 5.28662 24.8156 5.13945 24.8129 4.98739C24.8103 4.83533 24.7487 4.69024 24.6411 4.5827C24.5336 4.47516 24.3885 4.41356 24.2364 4.41088C24.0844 4.40819 23.9372 4.46464 23.8259 4.56832L21.2324 7.1611C21.1747 7.21484 21.1284 7.27964 21.0964 7.35164C21.0643 7.42364 21.047 7.50136 21.0456 7.58017C21.0443 7.65898 21.0587 7.73727 21.0883 7.81035C21.1178 7.88344 21.1617 7.94983 21.2175 8.00557C21.2732 8.0613 21.3396 8.10524 21.4127 8.13476C21.4858 8.16428 21.564 8.17878 21.6429 8.17739C21.7217 8.176 21.7994 8.15875 21.8714 8.12667C21.9434 8.09459 22.0082 8.04833 22.0619 7.99067L22.0627 7.99145ZM35.1166 31.8501L27.1356 34.8044C26.9908 34.8535 26.8326 34.8443 26.6946 34.7785C26.5566 34.7128 26.4497 34.5959 26.3966 34.4525C26.3434 34.3092 26.3483 34.1508 26.4102 34.011C26.4721 33.8712 26.586 33.7611 26.7278 33.7041L30.1682 32.43L27.1129 24.1797C25.6603 24.5573 24.1181 24.3605 22.8069 23.6303C21.4957 22.9001 20.5164 21.6926 20.0725 20.2588L18.0002 13.5707L15.9278 20.2596C15.4899 21.6974 14.5115 22.9094 13.1983 23.6406C11.8852 24.3719 10.3396 24.5654 8.88671 24.1805L5.83219 32.4308L9.27254 33.7048C9.41435 33.7619 9.5283 33.872 9.59017 34.0118C9.65204 34.1516 9.65694 34.31 9.60382 34.4533C9.55071 34.5967 9.44378 34.7136 9.30576 34.7793C9.16775 34.845 9.00955 34.8543 8.8648 34.8052L0.882974 31.8501C0.810673 31.8232 0.744363 31.7824 0.68783 31.73C0.631298 31.6775 0.585649 31.6145 0.553492 31.5444C0.488547 31.4028 0.482496 31.2413 0.53667 31.0952C0.590843 30.9492 0.700803 30.8307 0.842361 30.7658C0.983918 30.7008 1.14548 30.6948 1.2915 30.7489L4.73106 32.023L7.78558 23.7743C6.43778 23.1142 5.3961 21.9601 4.87697 20.552C4.35784 19.1438 4.40116 17.5898 4.99793 16.2128L8.53532 8.0478C8.59474 7.90952 8.70514 7.79945 8.84359 7.74042C8.98203 7.6814 9.13789 7.67797 9.2788 7.73084L18.0002 10.9607L26.7224 7.73084C26.8633 7.67817 27.0191 7.6817 27.1575 7.7407C27.2959 7.7997 27.4063 7.90965 27.4658 8.0478L31.0032 16.2128C31.5997 17.5899 31.6429 19.1439 31.1236 20.5521C30.6043 21.9602 29.5626 23.1142 28.2148 23.7743L31.2693 32.023L34.7089 30.7489C34.8549 30.6949 35.0164 30.701 35.1579 30.766C35.2994 30.831 35.4093 30.9496 35.4633 31.0956C35.5174 31.2416 35.5112 31.4032 35.4462 31.5446C35.3812 31.6861 35.2626 31.796 35.1166 31.8501ZM18.7257 11.9444L19.2727 13.7092H28.6382L26.6089 9.02528L18.7257 11.9444ZM7.36219 13.7092H16.7285L17.2755 11.9444L9.3915 9.02528L7.36219 13.7092ZM16.3645 14.8831H6.8535L6.07558 16.6792C5.82276 17.2606 5.69117 17.8874 5.68887 18.5214C5.68657 19.1554 5.81359 19.7832 6.06219 20.3664C6.31078 20.9496 6.67571 21.476 7.13467 21.9133C7.59363 22.3507 8.13698 22.6898 8.73148 22.9101C9.32599 23.1303 9.95916 23.2269 10.5923 23.1941C11.2254 23.1612 11.8452 22.9996 12.4137 22.7191C12.9823 22.4386 13.4876 22.045 13.8989 21.5625C14.3101 21.08 14.6187 20.5187 14.8056 19.9129L16.3645 14.8831ZM27.2663 22.9048C27.8604 22.6849 28.4035 22.3462 28.8624 21.9093C29.3213 21.4725 29.6863 20.9467 29.9352 20.3641C30.184 19.7814 30.3115 19.1542 30.3099 18.5206C30.3082 17.8871 30.1775 17.2605 29.9256 16.6792L29.1469 14.8831H19.6358L21.194 19.9129C21.3814 20.5182 21.6902 21.0789 22.1016 21.5608C22.513 22.0427 23.0184 22.4356 23.5867 22.7157C24.1551 22.9957 24.7746 23.1569 25.4074 23.1894C26.0402 23.2219 26.6722 23.1251 27.2663 22.9048Z" fill="white"/>
</svg>
