<svg xmlns="http://www.w3.org/2000/svg" width="24" height="24" viewBox="0 0 24 24" fill="none">
<path d="M6.27035 19.6399C7.32522 19.6399 8.18035 18.7848 8.18035 17.7299C8.18035 16.6751 7.32522 15.8199 6.27035 15.8199C5.21549 15.8199 4.36035 16.6751 4.36035 17.7299C4.36035 18.7848 5.21549 19.6399 6.27035 19.6399Z" stroke="black" stroke-width="2" stroke-miterlimit="10"/>
<path d="M17.7303 19.6399C18.7852 19.6399 19.6403 18.7848 19.6403 17.7299C19.6403 16.6751 18.7852 15.8199 17.7303 15.8199C16.6754 15.8199 15.8203 16.6751 15.8203 17.7299C15.8203 18.7848 16.6754 19.6399 17.7303 19.6399Z" stroke="black" stroke-width="2" stroke-miterlimit="10"/>
<path d="M4.36 17.73H1.5V4.35999H18.68V8.17999L20.59 12L22.5 13.07V17.73H19.64" stroke="black" stroke-width="2" stroke-miterlimit="10"/>
<path d="M15.8197 17.73H8.17969" stroke="black" stroke-width="2" stroke-miterlimit="10"/>
<path d="M20.5904 12.0001H14.8604V8.18005H18.6804" stroke="black" stroke-width="2" stroke-miterlimit="10"/>
</svg>